<?xml version="1.0" encoding="UTF-8" standalone="no"?>
<!DOCTYPE svg PUBLIC "-//W3C//DTD SVG 1.1//EN" "http://www.w3.org/Graphics/SVG/1.1/DTD/svg11.dtd">
<svg width="100%" height="100%" viewBox="0 0 98 98" version="1.1" xmlns="http://www.w3.org/2000/svg" xmlns:xlink="http://www.w3.org/1999/xlink" xml:space="preserve" xmlns:serif="http://www.serif.com/" style="fill-rule:evenodd;clip-rule:evenodd;stroke-linejoin:round;stroke-miterlimit:2;">
    <g>
        <circle cx="48.875" cy="48.875" r="48.875" style="fill:#172034;"/>
        <path d="M53.564,82.035C53.527,82.01 53.431,81.988 53.214,81.978C53.019,81.969 52.819,81.972 52.618,81.978C52.335,81.98 51.964,81.992 51.626,82.04C51.39,82.073 51.155,82.112 50.948,82.149C50.882,82.159 50.817,82.165 50.751,82.173C50.312,82.237 50.114,82.294 50.022,82.333C49.638,82.348 49.257,82.362 48.872,82.362C47.497,82.362 46.14,82.269 44.798,82.116C44.839,82.073 44.743,82.017 44.679,81.987C44.646,81.97 44.618,81.96 44.618,81.96C44.618,81.96 44.559,81.934 44.436,81.893C44.436,81.893 44.434,81.893 44.434,81.895C44.422,81.889 44.411,81.884 44.397,81.88C44.403,81.882 44.413,81.884 44.417,81.884C44.351,81.863 44.257,81.835 44.153,81.809C44.153,81.809 44.147,81.807 44.143,81.807C44.065,81.786 43.977,81.764 43.879,81.744C43.877,81.742 43.875,81.742 43.873,81.742C43.668,81.697 43.424,81.651 43.129,81.615C43.139,81.619 43.149,81.619 43.158,81.621C43.004,81.6 42.838,81.584 42.658,81.569C42.658,81.569 42.109,81.533 41.633,81.58C41.612,81.582 41.592,81.58 41.57,81.582C41.574,81.58 41.578,81.58 41.582,81.58L41.562,81.58C41.208,81.504 40.855,81.424 40.503,81.338C40.308,81.26 40.023,81.11 40.138,80.959C40.224,80.847 40.232,80.73 40.183,80.617C40.935,80.664 41.923,80.717 41.923,80.717C41.923,80.717 43.954,80.793 45.064,80.703C45.564,80.66 45.41,80.92 45.41,80.92C45.41,80.92 45.265,81.16 45.551,81.279C45.551,81.279 46.076,81.58 47.83,81.385C49.586,81.192 49.971,80.797 49.971,80.797C49.971,80.797 50.174,80.609 49.732,80.527C49.707,80.521 49.687,80.517 49.664,80.513C49.654,80.509 49.641,80.502 49.637,80.502C49.631,80.502 49.627,80.502 49.623,80.5C49.617,80.498 49.613,80.498 49.609,80.496C49.603,80.496 49.603,80.494 49.598,80.494C49.594,80.494 49.588,80.494 49.584,80.492L49.573,80.492C49.569,80.492 49.565,80.49 49.561,80.49C49.559,80.49 49.553,80.488 49.549,80.486L49.537,80.486C49.533,80.484 49.529,80.484 49.525,80.484C49.523,80.484 49.517,80.484 49.514,80.481L49.502,80.481C49.5,80.479 49.496,80.479 49.493,80.479C49.485,80.477 49.481,80.475 49.479,80.475L49.453,80.475C49.453,80.475 49.451,80.475 49.449,80.473L49.435,80.473C49.433,80.471 49.431,80.471 49.426,80.471L49.385,80.471C49.381,80.471 49.375,80.469 49.373,80.469C49.371,80.469 49.373,80.471 49.371,80.471L49.351,80.471C49.326,80.467 49.297,80.467 49.265,80.465L49.263,80.465C49.255,80.465 49.251,80.463 49.247,80.463L49.223,80.463C49.221,80.461 49.217,80.461 49.215,80.461C49.211,80.461 49.205,80.459 49.201,80.459L49.175,80.459C49.169,80.459 49.163,80.457 49.157,80.455L49.123,80.455C49.121,80.455 49.117,80.453 49.113,80.453L49.095,80.453C49.091,80.451 49.087,80.451 49.081,80.451C49.077,80.451 49.069,80.451 49.063,80.449L49.049,80.449C49.043,80.447 49.037,80.447 49.031,80.447C49.027,80.445 49.019,80.445 49.015,80.445C49.009,80.445 49.001,80.443 48.995,80.443C48.991,80.441 48.987,80.441 48.981,80.441C48.973,80.441 48.965,80.439 48.958,80.437L48.944,80.437C48.93,80.435 48.919,80.433 48.905,80.433C48.807,80.42 48.719,80.412 48.647,80.396L48.54,80.381C48.374,80.334 48.345,80.277 48.54,80.226C48.841,80.148 49.341,80.107 49.341,80.107C49.341,80.107 50.874,79.892 52.112,79.572C52.112,79.572 53.434,79.26 54.746,78.799C55.262,78.619 55.699,78.486 56.035,78.39C56.098,78.835 55.969,78.986 55.864,79.152C55.76,79.33 55.463,79.555 55.608,79.961C55.756,80.363 56.758,80.233 57.338,80.062C57.918,79.883 58.406,79.726 58.791,79.586C59.176,79.453 59.283,79.646 59.283,79.646C59.283,79.646 59.449,79.767 58.89,80.06C58.767,80.123 58.619,80.181 58.461,80.232C58.439,80.238 58.422,80.246 58.398,80.252C58.273,80.291 58.142,80.322 58.011,80.352L57.448,80.46L57.053,80.52L56.577,80.573C56.563,80.575 56.546,80.575 56.532,80.577L56.393,80.587C56.384,80.589 56.374,80.589 56.366,80.591C56.349,80.594 56.323,80.6 56.298,80.605C56.292,80.605 56.288,80.605 56.284,80.607C56.175,80.63 56.022,80.675 55.729,80.779C54.991,81.036 55.679,81.261 55.679,81.261C56.052,81.357 56.397,81.409 56.712,81.441C55.687,81.686 54.632,81.887 53.564,82.035ZM51.112,82.281C51.581,82.219 52.14,82.183 52.452,82.15C52.585,82.135 52.671,82.131 52.733,82.133C52.196,82.197 51.655,82.246 51.112,82.281ZM50.559,81.727C50.559,81.727 50.558,81.725 50.547,81.713C50.385,81.687 50.225,81.658 50.063,81.635L50.063,81.578C50.088,81.572 50.116,81.564 50.143,81.553C50.215,81.506 50.368,81.521 50.44,81.471C49.692,81.469 48.889,81.449 48.172,81.498L48.172,81.524L48.2,81.524C48.418,81.664 48.94,81.434 49.225,81.524L49.225,81.578L49.17,81.578C48.982,81.715 48.037,81.707 47.875,81.578C47.854,81.551 47.866,81.571 47.848,81.524C47.963,81.466 48.115,81.403 48.254,81.362C48.363,81.332 48.492,81.365 48.576,81.309C49.24,81.334 49.909,81.362 50.573,81.389C50.564,81.416 50.558,81.444 50.548,81.467C50.751,81.486 50.698,81.586 50.808,81.658C51.013,81.783 51.376,81.891 51.62,81.953L51.62,82.01L51.432,82.01C51.393,82.031 51.342,82.031 51.27,82.033C51.27,81.949 51.315,81.998 51.246,81.953C50.987,81.76 50.491,81.883 50.19,81.953C50,81.997 49.785,81.936 49.678,82.059C49.651,82.084 49.676,82.057 49.653,82.086L49.733,82.086C49.959,81.942 50.877,81.977 51.246,81.979L51.246,82.033L51.028,82.033C50.889,82.123 50.653,82.045 50.463,82.088C50.142,82.156 49.822,82.194 49.439,82.194C49.432,82.174 49.422,82.156 49.412,82.139C49.457,82.106 49.467,82.084 49.494,82.033C49.41,82.037 49.322,82.037 49.279,82.006C49.258,81.979 49.268,81.998 49.25,81.953C49.395,81.931 49.539,81.899 49.684,81.873C49.656,81.853 49.676,81.865 49.629,81.849C49.467,81.74 48.586,81.859 48.496,81.931L48.549,81.931C48.654,81.99 48.935,81.969 49.035,82.006L49.035,82.033L49.008,82.033L49.008,82.059C48.811,81.998 48.508,81.994 48.336,81.953C48.304,81.897 48.295,81.906 48.281,81.817C48.346,81.785 48.356,81.77 48.469,81.764C48.527,81.727 48.621,81.758 48.713,81.737C48.818,81.715 49.373,81.602 49.494,81.658L49.494,81.713C49.718,81.834 50.334,81.897 50.572,81.737C50.557,81.725 50.559,81.727 50.559,81.727ZM44.114,82.035C43.52,81.953 42.93,81.859 42.344,81.748C42.698,81.73 42.94,81.715 43.242,81.777C43.672,81.867 44.115,81.976 44.158,82.01C44.175,82.025 44.15,82.031 44.114,82.035ZM30.179,73.19C30.045,73.044 29.911,72.903 29.779,72.766C29.512,72.491 29.294,72.249 29.091,72.01C28.738,71.599 28.443,71.202 28.123,70.741L28.12,70.741L27.606,70.666L28.123,70.741C28.126,70.741 28.129,70.742 28.132,70.743C30.581,71.095 31.911,71.126 31.911,71.126C31.911,71.126 35.124,71.236 35.991,71.236C36.729,71.236 36.721,71.564 36.704,71.661C36.7,71.677 36.698,71.685 36.698,71.685C36.698,71.685 36.649,71.929 36.544,72.124C36.478,72.247 36.355,72.581 36.335,72.911C36.323,73.108 36.349,73.304 36.446,73.452C36.446,73.452 36.844,74.425 39.434,74.495C39.434,74.495 41.7,74.677 43.282,74.026C43.778,73.821 43.977,73.589 44.018,73.372C44.112,72.895 43.436,72.468 43.436,72.468C43.436,72.468 42.895,72.14 42.665,71.964C42.561,71.884 42.53,71.802 42.53,71.728C42.53,71.652 42.561,71.585 42.581,71.53C42.622,71.421 42.784,71.288 42.966,71.196C43.148,71.103 43.814,70.751 46.624,70.019C49.438,69.292 51.116,69.214 51.116,69.214C51.116,69.214 51.132,69.212 51.143,69.21C51.413,69.864 51.62,70.226 52.032,70.673C52.472,71.153 53.173,71.527 53.997,71.843C54.823,72.157 54.448,72.716 54.448,72.716C53.977,73.737 52.573,73.779 52.161,73.827C51.747,73.876 50.884,73.956 50.075,74.132C49.268,74.31 48.512,74.417 48.059,74.939C47.61,75.46 47.786,76.001 48.051,76.57C48.315,77.138 49.024,77.443 49.996,77.407C50.969,77.368 51.6,77.083 52.186,76.827C52.776,76.57 53.797,76.275 54.104,76.187C54.407,76.099 54.821,75.921 55.125,76.366C55.453,76.843 55.817,77.521 55.977,78.036C55.977,78.036 55.164,78.234 53.789,78.767C52.414,79.3 49.715,79.743 49.715,79.743C49.715,79.743 48.838,79.845 48.274,79.984C48.338,79.963 48.393,79.952 48.393,79.952C48.393,79.952 49.045,79.818 49.701,79.732C49.701,79.732 47.968,79.931 47.806,80.159C47.751,80.249 47.757,80.318 47.788,80.374C47.831,80.464 47.942,80.511 47.942,80.511C47.942,80.511 48.188,80.663 49.081,80.702C49.081,80.702 49.388,80.702 49.401,80.726C49.403,80.728 49.403,80.73 49.403,80.73C49.407,80.736 49.409,80.743 49.407,80.751C49.407,80.753 49.405,80.755 49.405,80.757C49.399,80.768 49.386,80.778 49.358,80.792C49.331,80.805 49.296,80.816 49.24,80.835C49.045,80.897 48.658,81.048 47.347,81.214C46.478,81.325 46.197,81.272 46.103,81.22C46.05,81.194 46.054,81.167 46.054,81.167C46.054,81.167 46.052,81.15 46.058,81.13C46.064,81.108 46.078,81.068 46.107,81.024C46.121,81.001 46.128,80.973 46.128,80.942C46.13,80.854 46.064,80.741 45.907,80.655C45.907,80.653 45.854,80.622 45.721,80.583C45.721,80.583 45.733,80.587 45.744,80.595C45.572,80.542 45.24,80.476 44.658,80.48C43.697,80.486 41.785,80.493 39.998,80.386C39.968,80.379 39.927,80.377 39.888,80.375L39.882,80.371L39.987,80.377C39.903,80.301 39.798,80.232 39.68,80.164C39.678,80.162 39.676,80.16 39.674,80.16C39.637,80.139 39.604,80.115 39.565,80.096C39.088,79.842 37.02,78.475 36.381,78.043C35.953,77.754 35.313,77.338 34.787,77.135C34.748,77.119 34.713,77.108 34.68,77.098C34.465,77.026 34.272,76.994 34.131,77.036C33.754,77.153 33.807,77.306 33.584,77.415C33.414,77.493 33.238,77.476 32.93,77.339C32.924,77.335 32.918,77.333 32.912,77.329L32.437,77.089C32.371,77.056 32.306,77.021 32.244,76.985C31.906,76.798 31.558,76.575 31,76.085L30.498,75.626C29.648,74.819 31.586,75.546 31.586,75.546C31.586,75.546 32.008,75.724 31.82,75.282C31.797,75.231 31.763,75.171 31.722,75.1L31.574,74.874L31.231,74.415L30.868,73.97L30.429,73.464L30.192,73.204L30.185,73.193L30.087,73.088C30.116,73.121 30.148,73.155 30.179,73.19ZM56.795,79.966C56.715,79.973 56.642,79.966 56.575,79.95C56.565,79.948 56.554,79.945 56.548,79.941C56.486,79.921 56.431,79.892 56.403,79.843L56.401,79.843C56.323,79.704 56.253,79.482 56.501,79.226C56.745,78.968 56.774,78.753 56.774,78.753C56.796,78.64 56.8,78.523 56.798,78.403C56.798,78.374 56.796,78.344 56.794,78.315C56.79,78.278 56.792,78.245 56.785,78.208C56.828,78.198 56.853,78.194 56.853,78.194C56.853,78.194 58.427,77.827 59.085,77.714C59.745,77.601 61.235,77.28 61.874,76.974C62.505,76.667 62.825,76.425 62.899,76.243C62.97,76.056 62.63,75.95 62.63,75.95C62.63,75.95 62.229,75.853 62.281,75.718C62.335,75.577 62.48,75.456 63.109,75.177C63.734,74.897 64.519,74.591 65.308,74.397C66.095,74.206 65.808,74.53 65.808,74.53C65.808,74.53 65.337,75.009 65.275,75.198C65.216,75.384 65.296,75.391 65.355,75.425C65.417,75.46 65.796,75.445 66.052,75.38C66.314,75.312 68.413,74.513 69.695,73.778C69.728,73.759 69.759,73.741 69.79,73.723L69.481,74.32C69.481,74.32 69.288,74.695 69.268,74.911C69.251,75.124 69.095,75.097 69.095,75.097C69.095,75.097 68.77,75.079 68.298,75.28C68.283,75.286 68.274,75.288 68.259,75.294C68.259,75.294 68.238,75.304 68.206,75.321C68.054,75.393 67.886,75.493 67.714,75.62L67.56,75.725C67.058,76.137 66.71,76.489 66.513,76.705C66.505,76.717 66.495,76.728 66.488,76.74C66.384,76.855 66.331,76.924 66.331,76.924C66.331,76.924 66.042,77.309 66.32,77.309C66.599,77.309 67.257,76.971 67.508,76.748C67.763,76.518 67.636,76.703 67.636,76.703C67.624,76.719 67.607,76.734 67.593,76.748C64.503,78.768 61.083,80.307 57.445,81.256C57.119,81.231 56.89,81.186 56.771,81.17C56.478,81.129 56.24,81.07 56.171,80.924C56.163,80.904 56.161,80.889 56.165,80.877C56.194,80.779 56.497,80.787 56.497,80.787C56.497,80.787 56.561,80.779 56.661,80.766C56.958,80.727 57.626,80.623 58.325,80.43C58.452,80.395 58.581,80.358 58.708,80.317C59.769,79.971 60.024,79.649 59.983,79.403C59.977,79.367 59.958,79.338 59.929,79.313C59.919,79.305 59.908,79.297 59.899,79.292C59.878,79.275 59.847,79.266 59.817,79.255C59.802,79.251 59.788,79.245 59.772,79.241C59.727,79.232 59.679,79.226 59.626,79.224C59.616,79.224 59.61,79.222 59.601,79.222C59.539,79.222 59.47,79.228 59.398,79.239C59.387,79.239 59.38,79.239 59.372,79.24C59.376,79.24 59.38,79.241 59.384,79.241C59.201,79.262 58.99,79.31 58.767,79.384C58.128,79.593 57.175,79.897 56.954,79.946C56.899,79.958 56.843,79.966 56.788,79.968L56.795,79.966ZM37.023,80.273C37.925,80.394 39.078,80.523 39.47,80.562L39.476,80.558C39.474,80.62 39.449,80.685 39.412,80.769C39.346,80.922 39.49,81.039 39.623,81.109C38.741,80.867 37.876,80.584 37.023,80.273ZM21.197,66.092C21.251,66.103 21.361,66.145 21.557,66.294C21.871,66.531 22.578,67.029 22.928,67.456C23.274,67.878 23.256,68.249 23.256,68.259C23.256,68.259 23.252,68.281 23.252,68.324C23.248,68.449 23.277,68.745 23.565,69.058C23.944,69.47 24.747,70.226 27.559,70.661C27.571,70.662 27.583,70.662 27.595,70.664L27.606,70.666C27.94,71.176 28.328,71.673 28.754,72.099C28.754,72.099 30.436,73.96 31.371,75.14C31.371,75.14 31.426,75.247 31.264,75.15C31.102,75.05 30.401,74.728 30.022,74.765C29.645,74.8 29.715,75.034 29.715,75.034C29.715,75.034 29.877,75.888 32.449,77.329C32.449,77.329 33.375,77.851 33.961,77.851C33.961,77.851 34.149,77.876 34.383,77.616C34.619,77.355 34.69,77.384 34.852,77.437C35.014,77.488 35.229,77.605 36.04,78.189C36.851,78.775 38.425,79.673 38.989,80.052C39.173,80.175 39.29,80.263 39.366,80.339C38.21,80.245 36.94,80.095 36.274,79.999C35.975,79.882 35.678,79.759 35.385,79.636C35.242,79.548 35.078,79.448 34.914,79.351C34.56,79.136 33.5,78.732 33.5,78.732C33.5,78.732 33.391,78.689 33.24,78.634C31.974,77.991 30.75,77.269 29.574,76.472C29.779,76.54 29.994,76.576 30.154,76.48C30.115,76.093 29.674,75.781 29.422,75.591C29.33,75.521 29.266,75.398 29.18,75.32C28.856,75.036 28.479,74.758 28.127,74.509C27.838,74.308 27.439,74.185 27.182,73.945C27.173,73.886 27.263,73.742 27.208,73.593C26.979,72.982 26.124,72.275 25.589,71.948C25.343,71.794 24.927,71.723 24.7,71.569C24.532,71.557 24.444,71.55 24.403,71.673C24.337,71.821 24.546,72.027 24.616,72.134C24.804,72.395 25.014,72.697 25.266,72.886C25.454,73.03 25.668,73.155 25.83,73.321L25.912,73.321C25.807,73.03 25.496,72.874 25.266,72.702C25.053,72.544 24.959,72.27 24.78,72.081C24.794,71.997 24.803,72.003 24.835,71.946C25.581,71.952 26.064,72.634 26.399,73.079C26.547,73.278 26.788,73.393 26.803,73.727C26.723,73.727 26.655,73.727 26.615,73.7L26.533,73.7C26.662,74.055 27.096,74.026 27.398,74.214C28.003,74.589 28.492,75.175 29.015,75.642C29.193,75.802 29.505,75.96 29.554,76.238C29.189,76.218 28.929,76.015 28.695,75.859C28.668,75.841 28.631,75.816 28.601,75.797C28.255,75.543 27.919,75.279 27.583,75.014C27.479,74.914 27.386,74.817 27.317,74.727C27.262,74.658 27.245,74.547 27.18,74.485C27.106,74.41 27.002,74.385 26.94,74.297L26.833,74.297C26.829,74.346 26.845,74.391 26.858,74.436C24.467,72.44 22.331,70.1 20.514,67.457C20.549,67.485 20.58,67.514 20.619,67.545C21.412,68.166 21.613,68.135 21.664,68.08C21.684,68.059 21.685,68.039 21.685,68.039C21.685,68.039 21.726,67.768 21.482,67.467C21.414,67.385 21.336,67.273 21.259,67.154C21.228,67.103 21.195,67.054 21.165,67.003C21.071,66.845 20.991,66.679 20.952,66.542C20.948,66.531 20.948,66.523 20.946,66.515C20.936,66.479 20.928,66.442 20.926,66.411C20.924,66.376 20.93,66.347 20.938,66.319C20.94,66.315 20.938,66.304 20.94,66.3C21.04,66.071 21.151,66.091 21.151,66.091C21.151,66.091 21.157,66.089 21.17,66.089L21.197,66.092ZM43.53,78.688C43.735,78.764 43.901,78.963 44.096,79.067C44.616,79.338 45.475,79.563 46.256,79.393C46.639,79.307 47.035,79.307 47.145,78.959C47.266,78.77 47.098,78.504 47.04,78.395C46.788,77.946 46.456,77.653 46.04,77.371C44.667,76.433 42.64,75.479 40.292,75.537C40.179,75.608 39.95,75.553 39.808,75.592C39.613,75.644 39.492,75.744 39.351,75.834C39.345,76.496 40.335,76.855 40.888,76.992C41.218,77.074 41.507,76.92 41.699,76.854C41.845,76.295 41.17,76.213 40.861,75.936L40.806,75.936L40.806,75.912C42.876,75.83 44.427,76.408 45.609,77.289C45.906,77.51 46.244,77.821 46.392,78.18C46.447,78.314 46.47,78.533 46.392,78.64C46.283,78.941 45.925,78.912 45.581,78.992C44.79,79.176 43.702,78.726 43.341,78.373C43.269,78.5 43.374,78.699 43.261,78.832C43.14,79.158 42.724,79.072 42.343,79.154C41.718,79.291 40.738,78.969 40.374,78.724C40.27,78.654 40.198,78.529 40.104,78.453C40.098,78.385 40.09,78.361 40.075,78.318C40.13,78.269 40.196,78.191 40.237,78.13C41.014,78.07 41.409,78.111 41.858,78.536C41.846,78.589 41.85,78.585 41.829,78.613C41.78,78.717 41.661,78.728 41.507,78.722L41.507,78.771C41.79,78.775 41.911,78.732 42.073,78.638C42.081,78.583 42.091,78.531 42.1,78.478C42.006,78.382 41.942,78.253 41.829,78.179C41.386,77.888 40.472,77.741 39.968,78.072C39.89,78.456 40.126,78.663 40.347,78.827C40.786,79.161 41.16,79.351 41.777,79.527C41.976,79.585 42.154,79.534 42.371,79.581C42.562,79.624 42.894,79.634 43.1,79.581C43.444,79.493 43.922,79.132 43.532,78.716L43.532,78.69L43.53,78.69L43.53,78.688ZM63.931,78.395C63.771,78.539 63.38,78.551 63.202,78.692L63.175,78.692C63.245,78.59 63.372,78.546 63.445,78.451C63.499,78.381 63.519,78.297 63.581,78.235C63.568,78.18 63.572,78.184 63.556,78.156L63.556,78.1C62.767,77.955 61.452,78.635 61.046,78.994C60.94,79.086 60.876,79.223 60.775,79.317C60.777,79.393 60.785,79.432 60.801,79.479C61.28,79.51 62.176,79.217 62.282,78.833C62.303,78.814 62.291,78.831 62.282,78.807L62.282,78.751C61.957,78.732 61.514,78.802 61.313,78.993L61.286,78.993C61.463,78.722 62.121,78.482 62.473,78.372C62.59,78.335 62.848,78.269 62.959,78.345C62.983,78.358 63.012,78.364 63.039,78.372C62.976,78.643 62.592,78.941 62.338,79.018L62.338,79.074C62.752,78.977 63.131,78.791 63.496,78.641C63.748,78.539 64.032,78.512 64.254,78.371C64.407,78.269 64.941,77.549 64.982,77.346C64.357,77.439 64.306,78.055 63.931,78.395ZM61.798,78.934L61.798,79.016C61.747,79.049 61.71,79.121 61.663,79.149C61.522,79.231 61.337,79.221 61.202,79.311C61.14,79.303 61.128,79.305 61.097,79.285L61.07,79.285C61.144,79.053 61.589,78.947 61.798,78.934ZM59.372,79.24C59.37,79.24 59.368,79.24 59.365,79.241L59.372,79.24ZM66.089,76.396L65.818,76.396C65.64,76.539 65.347,76.558 65.144,76.667C64.964,76.764 64.748,76.895 64.578,77.02C64.437,77.12 64.355,77.305 64.226,77.421C64.228,77.557 64.23,77.577 64.335,77.609C64.36,77.63 64.341,77.622 64.386,77.636C64.415,77.605 64.441,77.593 64.468,77.554C64.491,77.538 64.448,77.484 64.441,77.396C64.703,77.132 64.896,76.989 65.279,76.831C65.378,76.79 65.585,76.671 65.712,76.749L65.767,76.749C65.749,77.016 65.142,77.835 64.956,77.964L64.956,78.042C65.451,77.913 65.783,76.921 66.115,76.561C66.107,76.498 66.109,76.485 66.089,76.454L66.089,76.396ZM66.292,74.982C66.285,74.983 66.282,74.985 66.275,74.987C66.279,74.987 66.285,74.983 66.291,74.983C66.046,75.051 65.9,75.069 65.855,75.045C65.85,75.045 65.846,75.045 65.844,75.043C65.836,75.035 65.84,75.025 65.844,75.014C65.846,75.01 65.842,75.008 65.846,75.004C65.932,74.877 66.159,74.692 66.159,74.692C66.159,74.692 66.43,74.419 66.43,74.143C66.43,74.143 66.451,74.042 66.325,73.973C66.2,73.905 65.928,73.866 65.336,73.989C65.047,74.05 64.766,74.132 64.504,74.218C64.498,74.22 64.489,74.223 64.483,74.225C64.129,74.343 63.809,74.473 63.569,74.579L63.577,74.579C63.577,74.579 63.602,74.568 63.645,74.552C63.309,74.7 63.09,74.817 63.09,74.817C63.09,74.817 62.494,75.091 62.08,75.417L62.092,75.403C62.076,75.415 62.067,75.425 62.051,75.44C62,75.479 61.953,75.522 61.91,75.563C61.902,75.571 61.892,75.579 61.885,75.587C61.83,75.641 61.789,75.693 61.756,75.749C61.75,75.757 61.746,75.766 61.74,75.771C61.711,75.827 61.693,75.878 61.691,75.931L61.691,75.941C61.691,75.999 61.707,76.052 61.75,76.101C61.75,76.101 61.83,76.23 62.184,76.343C62.225,76.355 62.243,76.37 62.25,76.388C62.254,76.394 62.254,76.4 62.254,76.407C62.254,76.417 62.248,76.428 62.24,76.439C62.232,76.45 62.223,76.46 62.211,76.472C62.205,76.476 62.197,76.482 62.191,76.486C62.17,76.501 62.15,76.515 62.125,76.529L62.135,76.525C61.934,76.64 61.557,76.755 61.557,76.755C60.625,77.06 59.909,77.198 59.004,77.386C58.068,77.579 56.717,77.872 56.717,77.872C56.658,77.649 56.572,77.431 56.477,77.224C56.465,77.2 56.455,77.173 56.44,77.146L56.276,76.824L56.06,76.448L55.847,76.111C55.634,75.767 55.28,75.572 54.216,75.751C53.154,75.927 51.906,76.458 51.906,76.458C51.906,76.458 50.617,77.136 49.656,77.009C49.415,76.979 49.222,76.893 49.069,76.78C48.61,76.438 48.501,75.835 48.508,75.606C48.518,75.3 48.715,75.036 49.215,74.839C49.717,74.643 50.897,74.376 52.615,74.288C54.334,74.197 54.973,73.079 54.973,73.079C55.168,72.794 55.502,72.202 54.939,71.695C54.857,71.622 54.756,71.55 54.635,71.482C54.034,71.146 53.801,71.075 53.6,70.98C53.525,70.947 53.453,70.909 53.369,70.853C53.363,70.849 53.357,70.845 53.348,70.841L53.193,70.728C53.078,70.64 52.961,70.546 52.844,70.447C52.498,70.15 52.182,69.796 52.032,69.345C52.014,69.286 51.987,69.208 51.963,69.144L51.385,68.767L51.381,68.765L51.383,68.763L51.381,68.763L51.383,68.761L51.383,68.763L51.385,68.765L51.385,68.763L51.387,68.759L51.395,68.765L51.389,68.765L51.963,69.144C52.461,69.103 53.113,69.056 53.693,69.029C54.844,68.972 56.652,68.708 57.701,68.476C58.752,68.245 60.34,67.753 61.513,67.146C62.691,66.54 62.747,66.109 62.747,66.109C62.747,66.109 62.835,65.984 62.78,65.8C62.747,65.691 62.663,65.56 62.477,65.425C61.987,65.07 61.77,65.165 61.335,64.726C61.281,64.671 61.249,64.616 61.231,64.554C61.097,64.134 61.716,63.628 61.716,63.628C61.716,63.628 62.134,63.038 64.456,62.144C66.779,61.248 67.171,61.548 67.29,61.648C67.318,61.671 67.343,61.711 67.359,61.755C67.411,61.898 67.408,62.116 67.374,62.278C67.324,62.495 67.036,63.27 66.88,63.677C66.802,63.882 66.749,64.126 66.798,64.335C66.843,64.538 66.985,64.706 67.294,64.773C67.925,64.905 68.807,64.765 69.632,64.47C71.606,63.765 75.468,60.528 75.473,60.522C75.473,60.522 75.731,61.537 75.583,62.446C75.386,63.66 75.097,64.358 74.905,64.719L74.769,64.946C74.738,64.996 74.705,65.037 74.67,65.082C74.635,65.129 74.567,65.207 74.483,65.301C74.444,65.342 74.405,65.387 74.364,65.424L74.168,65.605C74.151,65.619 74.146,65.627 74.131,65.64C73.87,65.861 73.547,66.068 73.194,66.111C72.432,66.201 71.606,66.191 70.838,66.924C70.827,66.937 70.814,66.943 70.803,66.953C70.779,66.977 70.75,67.008 70.725,67.035C70.711,67.049 70.697,67.057 70.684,67.074C70.678,67.08 70.674,67.086 70.67,67.092C70.596,67.174 70.521,67.277 70.446,67.39C69.825,68.322 69.967,69.357 69.967,69.357C69.967,69.357 70.047,70.14 70.889,69.924C71.728,69.711 72.586,69.066 73.234,68.551C73.88,68.039 73.484,68.726 73.484,68.726C72.914,69.836 71.832,70.949 71.832,70.949C71.832,70.949 71.455,71.277 70.625,72.447C70.41,72.75 70.078,73.262 70.076,73.266C69.225,73.721 68.004,74.328 67.234,74.641C67.271,74.627 67.314,74.61 67.353,74.594C67.314,74.612 67.271,74.629 67.234,74.645C66.836,74.811 66.521,74.916 66.291,74.983L66.292,74.982L66.295,74.981C66.294,74.981 66.293,74.981 66.292,74.982ZM73.665,71.605C73.226,72.09 73.005,72.291 73.005,72.291L72.841,72.477C72.839,72.479 72.837,72.485 72.833,72.487C72.778,72.553 72.726,72.625 72.694,72.688C71.257,74.069 69.706,75.328 68.05,76.446C68.085,76.391 68.102,76.346 68.076,76.33C68.074,76.328 68.076,76.328 68.076,76.328C67.988,76.26 67.65,76.502 67.65,76.502C67.65,76.502 67.599,76.545 67.523,76.601L67.525,76.599C67.431,76.666 67.298,76.754 67.165,76.824L66.989,76.898C66.94,76.914 66.89,76.922 66.849,76.92C66.579,76.898 67.177,76.328 67.177,76.328C67.177,76.328 67.524,75.936 67.946,75.697C68.089,75.617 68.237,75.553 68.384,75.526C68.972,75.422 69.081,75.274 69.368,75.053C69.466,74.981 69.536,74.901 69.606,74.791C69.751,74.576 69.903,74.232 70.296,73.516C70.318,73.475 70.343,73.436 70.363,73.395C71.117,72.973 71.384,72.842 71.562,72.737C72.369,72.258 73.331,71.674 73.583,71.473C73.587,71.473 74.105,71.119 73.665,71.605ZM41.048,76.127C41.144,76.191 41.198,76.326 41.29,76.397C41.288,76.465 41.288,76.5 41.265,76.535C41.089,77.012 40.099,76.658 39.861,76.479C39.787,76.424 39.756,76.309 39.699,76.237C39.711,76.18 39.707,76.184 39.728,76.16C39.802,75.951 40.013,76.02 40.185,75.918C40.528,75.916 40.837,75.984 41.048,76.127ZM41.96,72.016C42.481,72.602 43.026,72.854 43.026,72.854C43.026,72.854 43.348,72.998 43.342,73.084C43.338,73.195 43.332,73.293 43.092,73.432C43.092,73.432 42.143,73.99 40.291,74.02C38.439,74.049 37.623,74.035 37.08,73.545C36.631,73.141 37.193,72.287 37.193,72.287C37.193,72.287 37.418,71.869 37.193,71.295C36.968,70.723 35.681,70.713 35.681,70.713L33.898,70.623C31.787,70.566 27.751,70.177 27.736,70.173C27.736,70.173 26.424,67.818 26.558,66.973C26.558,66.973 26.593,66.541 27.138,66.27C27.216,66.231 27.304,66.196 27.404,66.166C27.961,65.994 27.886,66.535 29.525,66.83C29.525,66.83 30.347,67.049 30.9,66.694C31.072,66.588 31.22,66.426 31.306,66.184C31.675,65.158 30.921,63.871 30.921,63.871C30.921,63.871 29.931,62.059 28.708,61.992C28.698,61.99 28.694,61.992 28.687,61.992C28.068,61.967 28.224,62.391 27.259,62.621C27.259,62.621 25.954,62.748 25.542,61.965C25.042,61.019 24.849,59.943 24.849,59.224L24.849,59.16C24.861,58.711 24.876,58.555 24.9,58.43C24.91,58.385 24.921,58.336 24.935,58.27C24.951,58.201 24.98,58.108 25.013,57.989C25.046,57.867 25.103,57.518 25.103,57.518C25.658,57.456 26.546,57.36 27.572,57.248C29.297,57.064 30.455,56.877 31.527,57.039C32.599,57.199 32.943,58.035 32.943,58.035C32.943,58.035 32.963,58.09 32.949,58.162C32.935,58.234 32.894,58.322 32.775,58.4C32.535,58.553 32.263,58.773 32.129,59.006C32.127,59.008 32.127,59.008 32.125,59.01L32.125,59.012C32.109,59.039 32.094,59.072 32.078,59.107C31.963,59.367 31.89,59.818 32.234,60.4C32.623,61.058 33.695,61.486 34.605,61.379C35.515,61.272 36.88,60.922 37.687,60.711C38.349,60.537 38.949,60.25 39.251,59.826C39.351,59.683 39.421,59.527 39.444,59.353C39.546,58.665 38.397,57.789 38.397,57.789C38.397,57.789 37.846,57.371 37.778,57.277C37.76,57.252 37.758,57.232 37.76,57.214C37.776,57.171 37.842,57.151 37.842,57.151C37.842,57.151 38.488,56.993 38.766,56.868C39.041,56.739 39.805,56.427 41.053,56.036C42.303,55.645 44.877,55.186 44.877,55.186C44.877,55.186 46.299,54.958 48.072,54.815L48.078,54.809C48.08,54.807 48.082,54.807 48.084,54.807L48.369,54.479L48.08,54.813C48.074,54.981 48.068,55.153 48.062,55.333C47.962,57.976 48.552,59.333 48.552,59.333C48.886,60.058 49.249,60.581 49.741,60.913C50.231,61.247 50.901,61.018 51.118,60.913C51.333,60.804 51.931,60.528 52.442,60.206C52.954,59.88 52.936,59.741 53.552,59.173C54.171,58.605 54.968,58.761 54.968,58.761C54.968,58.761 55.724,58.779 56.155,59.656C56.591,60.531 56.503,61.777 56.393,62.23C56.284,62.681 56.087,62.976 55.665,62.896C55.24,62.82 54.544,62.75 54.288,62.74C54.031,62.73 53.31,62.706 52.656,62.878C52.015,63.046 51.152,63.507 50.329,64.845C49.687,65.882 50.003,66.901 50.148,67.302C50.265,67.618 50.583,68.056 50.859,68.595L51.376,68.768L51.376,68.77L50.863,68.597C49.988,68.702 48.507,68.913 47.048,69.265C45.259,69.703 43.554,70.048 42.339,70.831C42.345,70.824 41.437,71.43 41.96,72.016ZM66.36,67.439C65.573,67.244 64.911,67.631 64.092,67.574C64.014,67.492 63.955,67.445 63.904,67.332C63.334,67.348 62.705,68.617 63.283,69.004C63.594,69.215 64.471,69.092 64.846,69.004C65.058,68.955 65.381,68.91 65.547,69.031C65.775,69.199 65.735,69.836 65.653,70.191C65.563,70.857 65.473,71.523 65.383,72.189C65.303,72.592 65.223,72.996 65.141,73.402C65.553,73.4 65.944,72.976 66.059,72.673C66.127,72.497 66.092,72.329 66.141,72.134C66.284,71.569 66.303,70.893 66.438,70.298C66.524,69.915 66.465,69.548 66.545,69.194C66.604,68.925 66.643,68.04 66.572,67.79C66.536,67.652 66.431,67.545 66.36,67.439ZM30.194,73.206C30.194,73.205 30.193,73.205 30.193,73.204L30.196,73.208C30.201,73.211 30.201,73.213 30.209,73.221C30.204,73.216 30.199,73.212 30.196,73.208C30.196,73.207 30.195,73.207 30.195,73.207C30.195,73.206 30.194,73.206 30.194,73.206ZM78.536,65.326C78.743,64.875 78.915,64.396 79.122,63.93C79.327,63.465 79.622,63.008 79.606,62.338C79.575,62.309 79.548,62.27 79.526,62.231L79.362,62.231C79.2,62.371 78.972,62.434 78.796,62.555C78.523,62.748 78.28,63.004 78.015,63.203C77.896,63.295 77.72,63.375 77.638,63.5C77.501,63.703 77.527,64.051 77.367,64.229L77.367,64.336C77.583,64.258 77.683,64.006 77.853,63.877C78.062,63.721 78.236,63.51 78.445,63.363C78.578,63.271 78.726,63.222 78.851,63.121C78.937,63.137 78.929,63.146 78.988,63.176C78.972,63.862 78.613,64.346 78.392,64.85C78.33,64.996 78.31,65.225 78.204,65.334C78.153,65.385 78.048,65.396 77.991,65.441C77.809,65.638 77.63,65.836 77.448,66.035C77.278,66.271 77.2,66.584 77.015,66.818C77.013,66.894 77.013,66.964 77.04,67.006C77.068,67.027 77.115,67.045 77.148,67.061C77.445,66.781 77.73,66.535 77.988,66.225C76.818,68.067 75.48,69.787 73.997,71.371C74.027,71.332 74.059,71.293 74.087,71.256C74.102,71.236 74.109,71.223 74.119,71.207C74.329,70.918 74.183,70.934 74.183,70.934C74.183,70.934 74.137,70.928 74.006,70.979C73.985,70.987 73.967,70.996 73.943,71.006C73.93,71.01 73.924,71.012 73.912,71.018L73.914,71.02C73.814,71.067 73.685,71.137 73.508,71.249C72.963,71.598 72.576,71.835 72.576,71.835C72.576,71.835 71.402,72.507 70.656,72.941C70.65,72.945 70.639,72.95 70.635,72.954C70.637,72.952 71.809,71.382 72.289,70.844C72.877,70.188 73.584,69.123 73.584,69.123C73.584,69.123 74.022,68.371 74.037,68.025C74.039,67.974 74.033,67.933 74.017,67.902C74.008,67.888 73.986,67.89 73.971,67.881C73.957,67.873 73.945,67.86 73.922,67.859C73.758,67.834 73.407,68.01 72.864,68.416C72.377,68.781 71.979,69.031 71.651,69.205C71.635,69.211 71.623,69.215 71.608,69.221C71.623,69.215 71.637,69.207 71.651,69.201C71.463,69.285 71.274,69.351 71.106,69.369C70.668,69.416 70.514,69.154 70.471,68.873C70.448,68.705 70.463,68.529 70.479,68.41C70.528,68.09 70.692,67.355 71.205,67.066C71.717,66.773 72.433,66.785 72.934,66.713C73.438,66.648 73.667,66.502 73.667,66.502C73.667,66.502 74.486,65.981 75.027,65.103C75.57,64.222 76.052,62.804 76.109,61.394C76.109,61.377 76.107,61.365 76.107,61.349C76.113,61.207 76.109,61.078 76.101,60.955L76.052,60.555C76.046,60.518 76.04,60.481 76.032,60.447C76.009,60.342 75.983,60.242 75.952,60.151L75.954,60.151C77.304,59.08 78.595,57.715 78.595,57.715C78.595,57.715 79.45,56.856 79.882,56.108C79.915,56.051 79.941,56.012 79.964,55.981C79.97,55.971 79.978,55.961 79.984,55.955C80.003,55.934 80.017,55.918 80.029,55.91C80.031,55.91 80.033,55.908 80.036,55.906C80.048,55.901 80.056,55.908 80.06,55.918C80.06,55.922 80.062,55.926 80.062,55.931C80.066,55.945 80.068,55.961 80.066,55.986C80.066,55.99 80.064,55.996 80.064,56L80.064,56.006C80.064,56.006 79.712,56.988 79.835,57.477L79.835,57.49C79.835,57.485 79.833,57.483 79.831,57.479C79.833,57.49 79.835,57.5 79.835,57.508C79.841,57.608 79.855,57.705 79.876,57.797C79.882,57.824 79.89,57.85 79.899,57.877C79.927,57.973 79.966,58.063 80.026,58.129C80.026,58.131 80.026,58.133 80.028,58.135C80.04,58.147 80.055,58.147 80.069,58.156C80.37,58.365 81.093,57.594 81.093,57.594C81.093,57.594 81.565,57.055 81.751,56.188C81.925,55.389 81.932,54.99 81.911,54.803C81.898,54.69 81.878,54.656 81.878,54.656C81.878,54.656 81.71,54.389 81.815,54.072C81.823,54.049 81.84,54.002 81.854,53.961C82.028,53.49 82.61,52.045 83.117,51.406C82.618,56.447 81.003,61.164 78.536,65.326ZM29.078,71.995L29.096,72.016C29.09,72.009 29.084,72.003 29.078,71.995ZM19.431,65.791L19.374,65.588C19.353,65.514 19.308,65.451 19.247,65.406L19.163,65.343C18.526,64.257 17.96,63.145 17.448,62.009C17.45,62.003 17.45,61.988 17.452,61.983C17.458,61.962 17.462,61.938 17.464,61.905C17.464,61.884 17.46,61.856 17.46,61.829C17.456,61.788 17.452,61.741 17.444,61.686C17.44,61.669 17.442,61.661 17.438,61.643C17.436,61.641 17.436,61.641 17.434,61.641C17.379,61.313 17.231,60.768 16.903,59.884C16.548,58.919 16.319,58.405 16.174,58.122L16.174,58.118C16.16,58.091 16.149,58.066 16.135,58.046L16.135,58.05C16.014,57.825 15.963,57.79 15.947,57.772C15.929,57.751 15.884,57.709 15.855,57.725C15.41,56.216 15.074,54.675 14.837,53.108C14.892,53.17 14.95,53.239 15.019,53.313L15.019,53.315C15.138,53.448 15.279,53.6 15.445,53.772L15.447,53.772L15.447,53.774C16.187,54.538 16.422,54.057 16.422,54.057C16.422,54.057 16.434,54.024 16.447,53.958C16.447,53.952 16.449,53.941 16.451,53.936C16.455,53.909 16.461,53.876 16.467,53.839C16.469,53.825 16.469,53.813 16.471,53.796C16.475,53.759 16.481,53.72 16.483,53.675C16.483,53.667 16.485,53.663 16.485,53.655C16.485,53.657 16.483,53.659 16.483,53.659C16.489,53.566 16.489,53.46 16.481,53.337C16.481,53.339 16.481,53.343 16.483,53.348C16.483,53.343 16.481,53.337 16.481,53.335L16.447,53.024C16.437,52.952 16.42,52.872 16.402,52.79C16.394,52.761 16.39,52.733 16.384,52.702C16.382,52.698 16.382,52.696 16.38,52.692C16.253,52.153 16.218,51.751 16.306,51.528C16.327,51.465 16.365,51.423 16.404,51.386C16.418,51.376 16.431,51.366 16.447,51.36C16.48,51.341 16.521,51.333 16.562,51.329C16.578,51.327 16.589,51.321 16.605,51.321C17,51.335 18.146,51.567 18.501,52.516C18.501,52.516 18.649,52.958 18.515,53.524C18.378,54.093 18.404,54.595 18.501,55.089C18.601,55.583 19.019,56.048 19.501,56.434C19.981,56.817 21.374,57.481 22.73,57.567C24.086,57.653 24.502,57.584 24.502,57.584C24.473,57.719 24.44,57.87 24.403,58.013C24.288,58.478 24.276,58.945 24.387,59.765C24.496,60.591 24.94,62.302 25.582,62.749C26.436,63.343 26.994,63.333 27.572,63.288C28.146,63.241 28.543,62.802 28.543,62.802C28.543,62.802 28.768,62.57 29.01,62.64C29.252,62.712 29.928,63.091 30.412,64.062C30.898,65.036 31.006,66.103 30.197,66.294C29.388,66.48 27.994,65.716 27.994,65.716C27.994,65.716 27.203,65.275 26.556,65.761C25.906,66.247 25.888,66.993 26.212,67.909C26.39,68.411 26.742,69.229 27.24,70.081C26.465,69.929 25.026,69.624 24.458,69.341C24.235,69.23 24.06,69.173 23.935,69.103C23.872,69.068 23.822,69.032 23.789,68.982C23.73,68.896 23.709,68.782 23.732,68.589C23.802,68.066 23.22,67.337 23.22,67.337C23.22,67.337 22.409,66.46 21.679,65.915C20.95,65.366 20.64,65.53 20.64,65.53C20.64,65.53 20.312,65.706 20.607,66.415C20.906,67.122 21.195,67.37 21.195,67.37C21.195,67.37 21.336,67.52 21.256,67.561C21.176,67.602 20.924,67.411 20.717,67.235C20.623,67.155 20.237,66.797 19.846,66.434C19.71,66.217 19.564,66.012 19.431,65.791ZM36.734,66.791C36.621,66.607 36.398,66.559 36.248,66.414C36.201,66.396 36.221,66.408 36.193,66.387C36.541,66.207 36.912,66.008 37.273,65.848C37.371,65.955 37.818,66.389 37.974,66.305C38.001,66.297 38.027,66.289 38.054,66.281C38.046,66.129 38.038,65.973 38.027,65.821C37.687,65.481 37.185,65.201 36.623,65.094L36.623,65.119L36.598,65.119C36.661,65.307 36.869,65.484 37.032,65.578L37.032,65.658C36.712,65.705 36.428,65.859 36.141,65.957C35.942,66.021 35.705,66.012 35.545,66.117L35.465,66.117C35.582,65.791 35.967,65.523 36.166,65.254C36.559,64.725 36.869,64.076 37.488,63.77C37.472,63.52 36.754,63.006 36.49,63.176C36.424,63.211 36.469,63.162 36.437,63.229C36.396,63.328 36.529,63.449 36.49,63.608C36.437,63.815 35.924,64.795 35.787,64.903L35.787,64.93C35.51,64.836 35.299,64.576 35.033,64.444C35.08,64.196 35.289,64.006 35.41,63.826C35.721,63.358 35.969,62.914 36.437,62.608C36.433,62.251 35.853,61.876 35.464,61.883C35.464,62.047 35.55,62.141 35.519,62.285C35.423,62.726 35.222,63.17 35.06,63.555C34.955,63.803 34.906,64.1 34.736,64.283C34.699,64.303 34.4,64.278 34.33,64.229C34.228,64.227 34.127,64.233 34.062,64.254L34.062,64.309C34.517,64.748 35.007,64.899 35.626,65.174C35.54,65.619 35.091,65.918 34.87,66.254C34.757,66.254 34.665,66.246 34.6,66.199C34.537,66.211 34.536,66.213 34.493,66.226C34.505,66.622 34.835,66.959 35.167,67.037C35.39,66.787 35.669,66.666 36.003,66.525C36.312,66.842 36.398,67.299 36.517,67.818C36.568,68.045 36.484,68.293 36.544,68.492C36.648,68.842 36.833,68.947 37.001,69.193L37.19,69.193C37.309,68.558 37.018,67.943 36.868,67.439C36.823,67.225 36.778,67.008 36.734,66.791ZM43.398,68.221C43.425,68.209 43.455,68.203 43.48,68.192C43.466,67.838 42.791,67.69 42.425,67.791C42.263,67.838 42.075,67.937 41.913,67.979C41.786,67.99 41.661,67.998 41.534,68.004C41.491,67.565 41.274,67.225 41.264,66.764C41.668,66.756 42.178,66.703 42.45,66.549C42.446,66.414 42.419,66.414 42.37,66.336C42.061,66.264 41.532,66.248 41.29,66.414C41.222,66.412 41.19,66.412 41.157,66.389C41.005,66.199 41.077,65.807 40.94,65.606L40.94,65.5C41.231,65.437 41.706,65.385 41.858,65.176C41.879,65.15 41.868,65.17 41.883,65.123C41.86,65.101 41.85,65.076 41.83,65.041C41.408,64.937 41.225,65.008 40.859,65.149C40.746,64.785 40.882,64.496 40.509,64.393C40.589,64.254 40.853,64.26 41.021,64.205C41.281,64.117 41.578,64.002 41.804,63.881C41.822,63.834 41.808,63.854 41.831,63.826C41.815,63.689 41.778,63.693 41.722,63.611C41.333,63.58 41.021,63.619 40.804,63.826L40.753,63.826C40.786,63.625 40.911,63.336 41.023,63.18C41.099,63.069 41.24,63.084 41.294,62.938L41.319,62.938L41.319,62.91C41.264,62.84 41.212,62.764 41.157,62.694C41.03,62.606 40.848,62.596 40.727,62.506C40.547,62.502 40.375,62.504 40.268,62.56C40.282,62.664 40.329,62.73 40.348,62.801C40.424,63.08 40.155,63.943 40.051,64.07C39.967,64.176 38.992,64.529 38.729,64.449C38.666,64.428 38.483,64.338 38.432,64.287C38.411,64.26 38.422,64.281 38.405,64.234C38.788,63.875 39.063,63.074 39.593,62.912C39.603,62.869 39.613,62.822 39.622,62.779C39.489,62.642 38.849,61.967 38.515,62.183C38.488,62.193 38.462,62.201 38.435,62.209C38.435,62.438 38.55,62.612 38.488,62.855C38.365,63.339 38.09,63.917 37.842,64.314C37.694,64.552 37.369,64.81 37.356,65.152C37.797,65.109 37.903,64.654 38.245,64.532C38.347,64.624 38.444,64.714 38.544,64.802C38.685,65.013 38.657,65.333 38.732,65.612C38.859,66.196 38.986,66.78 39.111,67.366C39.127,67.655 39.146,67.942 39.166,68.231C39.236,68.491 39.451,68.944 39.73,69.005C39.775,69.027 39.814,69.022 39.865,68.979C39.959,68.903 39.908,68.766 39.974,68.657C40.124,68.548 40.392,68.575 40.595,68.52C41.146,68.374 41.79,68.384 42.402,68.249C42.689,68.182 43.169,68.355 43.398,68.221ZM35.597,67.275C35.556,67.367 35.562,67.517 35.519,67.627C35.285,68.199 35.208,68.32 35.572,68.867C35.734,68.867 35.756,68.842 35.842,68.787C35.95,68.34 35.966,67.486 35.597,67.275ZM71.978,50.713C72.337,51.457 73.136,51.533 73.716,51.389C74.296,51.245 74.487,50.926 74.808,50.229C75.126,49.537 75.3,49.487 75.3,49.487C75.3,49.487 75.429,49.301 76.019,49.373C76.607,49.438 76.734,49.854 76.734,49.854C76.734,49.854 77.072,50.655 77.005,51.498C76.942,52.336 76.755,52.715 76.563,53.015C76.37,53.316 75.364,53.217 75.364,53.217C75.364,53.217 73.635,53.025 73.479,55.101C73.325,57.176 74.02,58.617 74.02,58.617C74.274,59.168 74.532,59.457 74.745,59.611C74.958,59.765 75.159,59.967 75.159,59.967C75.159,59.967 75.198,60 75.251,60.07L75.241,60.07C74.009,61.068 73.645,61.39 72.663,62.086C72.663,62.086 71.542,62.922 70.317,63.582C69.087,64.244 67.642,64.164 67.642,64.164C67.642,64.164 67.251,64.121 67.442,63.838C67.63,63.557 67.876,62.867 67.968,62.518C68.065,62.166 68.251,61.278 67.535,60.996C66.82,60.713 65.476,61.129 65.476,61.129C65.476,61.129 62.39,61.951 61.132,63.332C59.909,64.674 60.935,65.272 60.935,65.272C60.935,65.272 61.415,65.604 61.882,65.77C62.321,65.924 62.232,66.065 62.122,66.147C62.122,66.147 60.745,67.026 59.116,67.496C59.116,67.496 56.887,68.178 54.722,68.315C52.599,68.453 51.686,68.508 51.66,68.508C51.429,68.053 51.187,67.645 51.187,67.645C51.187,67.645 50.935,67.256 50.812,66.711C50.71,66.252 50.699,65.682 51.021,65.121C51.728,63.892 52.886,63.521 52.886,63.521C52.886,63.521 53.909,63.293 54.929,63.531C55.896,63.752 56.384,63.383 56.384,63.383C56.384,63.383 56.716,63.238 56.956,62.666C56.977,62.617 56.993,62.555 57.013,62.5C57.031,62.449 57.05,62.404 57.066,62.348C57.099,62.227 57.129,62.094 57.15,61.944C57.329,60.766 57.14,58.578 55.57,58.141C53.999,57.711 53.165,58.526 53.165,58.526C53.165,58.526 52.318,59.461 52.044,59.596C51.77,59.733 51.347,59.981 51.347,59.981C51.347,59.981 50.757,60.335 50.356,60.422C50.108,60.477 49.268,59.375 49.078,58.434C49.064,58.372 49.047,58.305 49.039,58.244C48.961,57.459 48.81,56.801 48.818,55.412L48.832,54.762C49.109,54.744 49.393,54.731 49.676,54.719C52.114,54.631 53.321,54.342 54.615,54.051C55.908,53.76 57.73,52.701 58.002,52.498C58.238,52.322 58.705,52.109 58.893,51.461C58.914,51.393 58.926,51.313 58.94,51.234C58.944,51.211 58.952,51.189 58.955,51.164C58.955,51.162 58.957,51.16 58.957,51.158C59.071,50.275 58.026,49.685 58.026,49.685C58.026,49.685 57.196,49.247 57.02,49.051C56.932,48.953 56.928,48.859 56.948,48.787C56.969,48.719 57.006,48.674 57.006,48.674C57.006,48.674 57.478,47.662 58.982,47.069C60.486,46.476 61.5,46.313 62.129,46.245C62.766,46.179 62.98,46.407 63.067,46.516C63.153,46.621 63.153,46.846 63.082,47.075C63.012,47.286 62.776,47.784 62.641,48.026C62.508,48.27 62.287,48.856 62.426,49.132C62.57,49.407 63,49.536 63.559,49.436C64.121,49.333 65.596,48.915 66.894,48.376C68.191,47.835 70.371,46.762 70.373,46.76C70.373,46.76 71.626,49.982 71.978,50.713ZM39.862,68.303C39.805,67.918 39.622,67.58 39.618,67.17C40.034,67.162 40.247,66.994 40.589,66.953C40.61,67.205 40.765,67.914 40.886,68.086C40.888,68.102 40.888,68.123 40.888,68.141C40.562,68.211 40.224,68.305 39.862,68.303ZM37.136,66.926C37.083,67.16 37.656,67.682 37.837,67.819C37.929,67.887 38.05,68.043 38.189,67.979C38.259,67.973 38.283,67.967 38.324,67.953C38.355,67.881 38.404,67.789 38.351,67.713C38.335,67.371 37.458,66.992 37.136,66.926ZM39.376,66.037C39.583,66.019 40.116,65.842 40.267,65.74L40.294,65.74C40.345,65.984 40.376,66.406 40.511,66.603C40.413,66.84 39.818,66.82 39.593,66.955C39.497,66.9 39.374,66.223 39.376,66.037ZM77.907,65.873C77.872,66.141 77.669,66.381 77.472,66.496L77.472,66.521L77.446,66.521C77.495,66.197 77.739,66.109 77.852,65.873L77.907,65.873ZM39.025,64.715C39.068,64.643 39.785,64.529 39.863,64.58C40.148,64.713 40.047,65.133 40.215,65.389C40.156,65.522 39.5,65.721 39.297,65.742C39.259,65.453 39.212,64.869 39.025,64.715ZM21.134,63.365C21.298,63.453 21.333,63.832 21.402,64.013C21.547,64.394 21.759,64.892 22.107,65.066L22.107,65.092L22.162,65.092C22.119,64.787 21.947,64.513 21.838,64.254C21.6,63.672 21.414,63.06 21.217,62.474C21.104,62.131 21.028,61.797 20.922,61.476C20.865,61.308 20.879,61.117 20.785,60.99L20.785,60.908C20.969,60.974 21.248,60.969 21.406,61.072L21.543,61.072C21.512,60.931 21.484,60.695 21.406,60.584C21.324,60.453 20.801,60.451 20.652,60.344C20.439,60.178 20.238,59.698 20.084,59.453C19.701,58.848 19.197,58.203 18.627,57.779C18.324,57.554 18.115,57.322 17.574,57.32C17.511,57.365 17.447,57.41 17.386,57.455C17.263,57.994 17.48,58.988 17.788,59.236L17.788,59.289C17.659,59.254 17.52,59.185 17.438,59.101L17.411,59.101C17.415,59.254 17.446,59.455 17.518,59.56C17.549,59.693 17.766,59.799 17.895,59.83C18.065,60.537 18.299,61.262 18.543,61.91C18.74,62.426 18.84,62.92 19.055,63.418C19.16,63.662 19.412,63.84 19.487,64.094L19.567,64.094C19.506,63.865 19.381,63.653 19.299,63.448C19.051,62.849 18.854,62.218 18.649,61.614C18.518,61.218 18.426,60.833 18.299,60.454C18.252,60.31 18.266,60.163 18.192,60.048L18.192,60.022C18.376,60.055 18.485,60.151 18.624,60.21C18.938,60.348 19.239,60.398 19.567,60.534C19.809,60.634 20.112,60.769 20.405,60.805C20.438,61.048 20.579,61.692 20.702,61.858L20.702,61.938C20.292,61.657 20.3,61.255 19.567,61.319C19.532,61.362 19.481,61.399 19.434,61.425C19.366,61.591 19.362,61.866 19.434,62.044C19.608,62.484 20.164,63.402 20.622,63.53C20.798,63.654 21.054,63.5 21.134,63.365ZM19.734,62.312C19.736,62.046 19.838,62.046 19.949,61.907C20.012,61.902 20.025,61.902 20.056,61.884C20.474,61.886 20.57,62.073 20.812,62.235C20.851,62.395 20.876,62.464 20.865,62.636C20.785,62.739 20.705,62.835 20.623,62.934C20.551,62.989 20.473,63.009 20.408,63.071C19.943,63.055 19.927,62.6 19.734,62.312ZM79.849,60.451C79.751,60.539 79.609,60.562 79.499,60.64C79.157,60.883 78.8,61.293 78.554,61.638C78.359,61.91 78.191,62.211 78.015,62.5C77.939,62.629 77.921,62.774 77.826,62.877L77.826,62.933C78.062,62.894 78.201,62.74 78.367,62.635C78.816,62.359 79.22,62.103 79.636,61.801C79.835,61.654 79.987,61.424 80.199,61.285C80.22,60.963 80.285,60.709 80.146,60.473C80.062,60.461 79.966,60.451 79.849,60.451ZM79.527,61.422C79.363,61.541 79.208,61.711 79.042,61.826C78.898,61.928 78.729,61.98 78.609,62.097L78.583,62.097C78.673,61.82 79.142,61.34 79.363,61.181C79.478,61.094 79.626,61.074 79.742,60.99L79.849,60.99C79.874,61.021 79.872,61.021 79.904,61.045C79.878,61.248 79.659,61.32 79.527,61.422ZM16.073,58.406C16.075,58.402 16.073,58.396 16.075,58.396C16.132,58.385 16.471,59 16.665,59.584C16.892,60.26 17.044,60.822 17.044,60.822C17.044,60.822 17.169,61.203 17.159,61.34C16.751,60.377 16.39,59.398 16.073,58.406ZM67.089,58.18C66.784,57.994 66.743,57.039 66.63,56.617C66.407,55.789 66.3,54.92 66.064,54.082C65.912,53.543 65.708,52.985 65.767,52.326C65.861,52.231 65.923,52.108 66.037,52.028C66.189,51.924 66.433,51.873 66.552,51.731C66.571,51.696 66.537,51.643 66.524,51.569C66.211,51.621 65.925,51.807 65.661,51.92C65.122,52.151 64.593,52.287 64.044,52.517C63.872,52.586 63.692,52.707 63.476,52.73L63.476,52.894C63.494,52.904 63.513,52.912 63.531,52.92C63.558,52.949 64.234,52.651 64.447,52.84C64.691,52.924 64.66,53.24 64.8,53.435C64.759,53.853 64.341,54.497 64.179,54.865C63.783,55.769 63.38,56.633 62.942,57.48C62.772,57.806 62.571,58.39 62.345,58.64L62.345,58.666C62.199,58.463 62.21,57.949 62.132,57.668C61.892,56.826 61.736,55.901 61.485,55.08C61.438,54.922 61.276,54.207 61.378,54.053C61.413,53.683 61.94,53.521 62.241,53.407C62.233,53.344 62.224,53.28 62.216,53.218C61.737,53.29 61.241,53.544 60.812,53.704C60.406,53.856 60.035,53.917 59.624,54.056C59.421,54.126 59.19,54.244 58.952,54.271L58.952,54.298L58.923,54.298C58.935,54.374 58.941,54.415 58.978,54.46C59.087,54.532 59.681,54.22 59.923,54.407C60.302,54.536 60.314,55.141 60.435,55.54C60.763,56.616 60.931,57.81 61.246,58.913C61.324,59.188 61.513,60.063 61.326,60.288C61.226,60.589 60.724,60.708 60.435,60.829C60.445,60.884 60.453,60.936 60.46,60.989C60.876,60.927 61.253,60.735 61.624,60.608C62.349,60.366 63.034,60.165 63.731,59.907C63.718,59.844 63.71,59.78 63.702,59.719C63.405,59.797 63.175,59.887 62.757,59.879C62.702,59.832 62.652,59.789 62.599,59.744C62.552,59.598 62.505,59.455 62.462,59.311C62.491,58.971 62.927,58.342 63.081,58.041C63.542,57.16 63.942,56.27 64.347,55.344C64.505,54.99 64.863,54.475 64.915,54.078C65.042,54.154 65.005,54.377 65.05,54.537C65.142,54.859 65.195,55.205 65.292,55.56C65.483,56.244 65.558,56.976 65.751,57.693C65.821,57.957 65.929,58.408 65.806,58.691C65.683,58.965 65.232,59.15 64.943,59.256C64.953,59.316 64.966,59.381 64.998,59.418C65.001,59.424 65.615,59.224 65.724,59.176C66.476,58.857 67.246,58.525 68.015,58.234C68.005,58.17 67.998,58.105 67.991,58.046C67.788,58.096 67.351,58.344 67.089,58.18ZM31.542,41.115C31.497,41.207 31.255,41.396 31.255,41.396C31.255,41.396 31.161,41.453 30.81,41.851C30.456,42.251 30.353,42.64 30.335,42.984C30.333,43.027 30.339,43.082 30.349,43.144C30.425,43.572 30.849,44.38 31.984,44.621C33.281,44.892 34.765,44.389 34.765,44.389C34.765,44.389 35.738,44.174 36.663,43.246C37.085,42.824 37.138,42.367 37.065,41.984C36.973,41.492 36.67,41.123 36.67,41.123C36.67,41.123 36.52,40.916 36.229,40.822C36.229,40.822 36.161,40.801 36.155,40.76C36.153,40.744 36.159,40.727 36.176,40.707C36.221,40.658 36.307,40.502 36.524,40.35C36.655,40.274 36.848,40.184 37.114,40.09C37.802,39.912 39.831,39.272 44.657,38.635C44.657,38.635 45.009,40.031 45.274,40.934C45.54,41.838 45.657,42.731 45.698,42.916C45.737,43.104 45.727,43.437 45.481,43.633C45.235,43.832 44.635,43.998 44.508,44.018C44.381,44.038 44.145,43.989 43.83,43.879C43.514,43.772 43.201,43.752 43.201,43.752C43.201,43.752 42.443,43.625 41.638,43.871C40.831,44.115 40.222,44.939 40.173,45.973C40.124,47.007 40.134,47.526 40.538,48.44C40.938,49.354 41.667,49.876 42.216,49.884C42.769,49.893 43.218,49.61 43.534,49.167C43.847,48.725 43.936,48.653 43.936,48.653C44.309,48.448 45.262,48.357 45.743,48.536C46.227,48.712 47.112,49.267 47.6,50.364C47.995,51.249 48.118,52.239 48.098,54.019L48.494,54.325L48.49,54.329L48.09,54.021C46.971,54.114 45.676,54.265 45.676,54.265C45.676,54.265 42.75,54.681 40.071,55.509C37.796,56.208 37.364,56.595 37.364,56.595C37.364,56.595 36.878,57.001 37.284,57.585C37.284,57.585 37.514,57.954 37.985,58.321C38.452,58.69 38.829,59.042 38.776,59.219C38.721,59.401 38.577,59.481 38.577,59.481C38.577,59.481 37.923,60.063 35.239,60.514C35.239,60.514 33.514,60.848 32.983,60.327C32.452,59.805 32.686,59.454 32.686,59.454C32.686,59.454 32.721,59.337 33.108,59.096C33.108,59.096 33.756,58.69 33.551,57.917C33.342,57.145 32.098,56.182 30.754,56.189C30.754,56.189 25.156,56.71 25.15,56.712C25.152,56.534 25.148,56.35 25.136,56.147C25.073,55.014 24.991,53.27 24.839,52.253C24.687,51.235 24.407,49.661 23.48,49.616C23.48,49.616 23.023,49.579 22.367,50.22C21.763,50.804 21.219,49.736 21.187,49.084C21.152,48.32 21.277,47.547 21.466,47.178C21.515,47.086 21.581,47.016 21.657,46.963C21.889,46.805 22.198,46.795 22.272,46.801C22.372,46.811 22.651,46.918 22.983,47.125C23.235,47.281 23.555,47.32 23.815,47.213C23.901,47.178 23.981,47.129 24.049,47.061C24.317,46.791 24.694,46.477 24.848,45.29C25,44.102 24.854,41.389 24.854,41.389C25.116,41.344 25.459,41.284 25.85,41.223C26.284,41.157 26.776,41.09 27.291,41.039C28.877,40.883 30.557,40.861 31.262,40.949C31.267,40.957 31.589,40.998 31.542,41.115ZM20.435,60.289C20.15,60.269 19.908,60.158 19.679,60.074C19.07,59.847 18.517,59.654 17.98,59.398C17.914,59.154 17.46,58.277 17.709,57.969C17.729,57.941 17.746,57.912 17.764,57.888C17.819,57.873 17.817,57.879 17.844,57.861C18.676,57.961 19.51,58.972 19.922,59.533C20.082,59.752 20.215,60.078 20.436,60.234L20.435,60.289ZM83.236,50.105L83.072,50.383C83.017,50.476 83.009,50.586 83.05,50.687L83.124,50.869C83.119,50.875 83.117,50.879 83.115,50.885C83.113,50.885 83.111,50.887 83.109,50.889L82.613,51.694C81.751,53.117 81.613,54.264 81.613,54.264C81.613,54.264 81.531,54.709 81.576,54.969C81.587,55.022 81.597,55.065 81.609,55.106C81.611,55.11 81.611,55.115 81.611,55.117C81.626,55.158 81.636,55.192 81.648,55.223C81.648,55.223 81.65,55.225 81.65,55.227L81.652,55.229C81.667,55.266 81.679,55.301 81.689,55.33C81.693,55.334 81.693,55.338 81.695,55.344C81.701,55.363 81.708,55.379 81.708,55.396C81.712,55.428 81.699,55.568 81.66,55.756C81.654,55.793 81.644,55.83 81.636,55.867L81.538,56.205C81.53,56.231 81.517,56.26 81.507,56.287C81.472,56.379 81.431,56.474 81.382,56.565C81.376,56.578 81.372,56.59 81.364,56.602C81.065,57.16 80.806,57.305 80.806,57.305C80.806,57.305 80.29,57.678 80.22,57.412C80.151,57.146 80.169,56.922 80.198,56.754C80.22,56.584 80.395,55.678 80.37,55.342C80.345,55.004 80.044,55.274 80.044,55.274C80.044,55.274 79.974,55.356 79.841,55.524C79.708,55.692 78.962,56.641 78.677,56.973C78.003,57.762 77.392,58.328 75.751,59.653C75.745,59.655 75.739,59.662 75.737,59.664C75.731,59.658 75.726,59.651 75.722,59.645C75.659,59.541 75.599,59.457 75.542,59.383C75.47,59.289 75.404,59.213 75.361,59.156C75.169,58.908 74.816,59.017 74.384,57.978C73.954,56.941 73.855,56.056 73.864,55.445C73.864,55.357 73.868,55.277 73.872,55.203C73.911,54.596 74.058,54.363 74.337,54.101C74.618,53.84 75.855,53.955 75.855,53.955C75.855,53.955 76.462,54.08 77.005,53.183C77.407,52.515 77.487,51.531 77.431,50.769C77.413,50.504 77.376,50.267 77.331,50.078C77.157,49.344 76.907,48.705 75.901,48.599C74.897,48.495 74.444,49.732 74.444,49.732C74.444,49.732 74.241,50.205 74.028,50.476C73.815,50.746 73.237,50.668 73.237,50.668C72.985,50.64 72.677,50.735 72.376,50.115C72.077,49.498 71.392,47.875 71.392,47.875C71.162,47.324 71.013,46.844 70.923,46.475L70.921,46.469C71.618,46.086 72.808,45.391 73.657,44.676C74.931,43.602 76.178,42.477 76.497,42.194C76.815,41.909 77.106,41.682 77.388,41.696C77.671,41.71 77.888,41.911 78.064,42.673C78.24,43.435 78.273,44.064 78.353,44.435C78.433,44.804 78.548,45.236 78.99,45.324C79.429,45.412 80.021,45.027 80.242,44.838C80.3,44.791 80.369,44.715 80.439,44.615C80.441,44.609 80.447,44.601 80.451,44.597C80.48,44.552 80.511,44.507 80.542,44.454C80.712,44.157 80.863,43.722 80.849,43.206C80.849,43.206 80.895,42.112 80.328,41.075C80.328,41.075 80.091,40.655 80.003,40.54C79.941,40.46 79.899,40.378 79.997,40.185C80.021,40.136 80.054,40.078 80.095,40.013C80.218,39.818 80.412,39.572 80.718,39.4C81.024,39.226 81.319,39.185 81.487,39.13C81.487,39.13 81.675,39.085 81.915,38.952L81.913,38.948L81.915,38.948C81.919,38.954 81.921,38.96 81.923,38.968C82.28,40.085 82.694,41.947 82.694,41.947C82.694,41.947 82.823,42.494 82.837,42.746C82.851,43 82.794,43.006 82.681,42.873C82.57,42.74 82.456,42.824 82.456,42.824C82.456,42.824 82.337,42.873 82.337,43.351C82.337,43.829 82.394,44.951 82.483,45.816C82.587,46.843 82.905,47.271 82.905,47.271C82.905,47.271 83.186,47.693 83.261,46.878C83.265,46.847 83.267,46.831 83.272,46.806C83.284,47.181 83.306,47.556 83.306,47.931C83.304,48.645 83.28,49.375 83.236,50.105ZM14.831,51.996L14.651,51.738C14.514,50.484 14.444,49.205 14.444,47.935C14.444,45.96 14.612,43.986 14.942,42.064L15.094,41.72C15.11,41.689 15.115,41.654 15.121,41.62C15.266,41.649 15.396,41.714 15.396,41.714C15.396,41.714 16.171,42.132 16.515,42.202C16.863,42.274 17.113,42.157 17.339,42.003C17.384,41.972 17.435,41.923 17.484,41.882C17.525,41.847 17.564,41.819 17.605,41.778C17.638,41.747 17.668,41.71 17.699,41.676C17.754,41.617 17.808,41.563 17.861,41.498C17.855,41.502 17.849,41.506 17.843,41.512C17.989,41.33 18.113,41.131 18.208,40.928C18.204,40.946 18.198,40.963 18.187,40.99C18.228,40.908 18.265,40.828 18.294,40.75C18.312,40.697 18.327,40.635 18.343,40.564C18.349,40.541 18.353,40.513 18.357,40.488C18.364,40.458 18.37,40.425 18.375,40.393C18.408,40.188 18.432,39.955 18.449,39.74L18.449,39.754C18.476,39.412 18.484,39.131 18.484,39.119L18.486,39.127L18.486,39.123L18.488,39.125C18.488,39.125 18.488,38.838 18.48,38.771C18.478,38.765 18.478,38.753 18.476,38.744C18.464,38.648 18.443,38.383 18.619,38.24C18.807,38.08 18.932,38.004 19.398,37.992C19.861,37.98 20.002,38.25 20.002,38.25C20.002,38.25 20.16,38.473 20.16,38.615C20.16,38.757 20.115,38.844 20.115,38.844C20.115,38.844 19.861,39.272 19.773,39.481C19.685,39.69 19.339,40.385 19.441,40.965L19.441,40.969C19.541,41.549 20.449,41.821 20.449,41.821C20.449,41.821 21.174,41.993 22.205,41.841L24.336,41.496C24.391,42.271 24.455,43.788 24.445,44.298C24.433,44.921 24.341,46.234 23.685,46.544C23.685,46.544 23.464,46.659 23.093,46.382C22.722,46.103 22.322,46.091 22.159,46.085C21.996,46.079 21.282,46.194 21.005,46.978C20.726,47.759 20.749,48.812 20.808,49.432C20.867,50.052 21.406,51.108 22.083,51.108C22.083,51.108 22.413,51.132 22.804,50.733C23.191,50.333 23.417,50.296 23.591,50.302C23.767,50.309 24.103,50.489 24.321,52.245C24.532,53.911 24.615,55.273 24.599,56.792C24.378,56.818 24.108,56.845 23.834,56.866C23.145,56.913 22.145,56.825 20.902,56.458C19.703,56.104 18.943,55.464 18.791,55.052C18.787,55.034 18.777,55.018 18.773,54.999C18.755,54.936 18.748,54.864 18.744,54.79C18.742,54.769 18.744,54.755 18.742,54.734C18.746,54.521 18.793,54.325 18.793,54.325C18.793,54.325 19.027,53.427 18.881,52.687L18.798,52.316C18.79,52.3 18.782,52.29 18.777,52.273C18.615,51.728 18.343,51.284 17.767,50.935C17.054,50.505 16.648,50.581 16.648,50.581C16.648,50.581 16.007,50.482 16.031,51.566C16.056,52.65 16.191,53.105 16.191,53.105C16.191,53.105 16.314,53.489 16.117,53.538C15.922,53.589 15.613,53.292 15.613,53.292C15.613,53.292 15.474,53.165 15.283,52.979C15.26,52.955 15.234,52.928 15.211,52.901C15.082,52.772 14.94,52.627 14.803,52.473L14.866,52.319C14.911,52.213 14.898,52.09 14.831,51.996ZM33.277,52.41L33.277,52.437C33.322,52.496 33.32,52.617 33.359,52.679C33.341,52.724 33.353,52.705 33.332,52.734C33.221,52.808 33.057,52.775 32.9,52.812C32.58,52.894 31.546,53.144 31.308,52.92C31.156,52.869 31.056,52.672 31.038,52.488C30.97,52.492 30.938,52.492 30.903,52.514L30.846,52.514C30.946,53.035 31.045,53.557 31.143,54.078L31.17,54.078L31.17,54.105C32.115,53.943 33.059,53.779 34.004,53.619C33.869,53.123 33.734,52.631 33.6,52.133C33.524,52.02 33.282,52.033 33.141,51.975C32.905,51.877 32.612,51.662 32.467,51.463C32.033,50.865 31.555,49.451 31.873,48.387C32.133,47.524 32.693,46.936 33.6,46.713C34.059,46.602 34.553,46.756 34.842,46.902C35.666,47.326 36.018,47.929 36.272,48.925C36.598,50.212 36.182,51.395 35.327,51.784C35.38,52.305 35.434,52.827 35.489,53.349C35.792,53.339 36.071,53.278 36.327,53.212C36.755,53.107 37.192,53.093 37.595,52.997C37.888,52.927 38.312,52.987 38.538,52.835C38.593,52.72 38.37,51.915 38.323,51.73C38.284,51.575 38.317,51.417 38.243,51.298L38.243,51.243C38.18,51.251 38.116,51.261 38.054,51.27C38.066,52.083 37.486,51.973 36.839,52.132C36.517,52.214 36.124,52.317 35.761,52.321L35.761,51.968C35.79,51.911 36.265,51.704 36.353,51.644C36.667,51.425 36.988,51.081 37.191,50.755C37.328,50.53 37.441,50.234 37.513,49.97C37.607,49.638 37.618,49.173 37.542,48.837C37.487,48.607 37.509,48.427 37.433,48.216C37.142,47.407 36.531,46.816 35.761,46.489C35.409,46.343 35.015,46.337 34.601,46.247C34.234,46.167 33.572,46.331 33.304,46.409C32.005,46.792 31.124,47.419 30.714,48.675C30.552,49.173 30.603,49.862 30.741,50.321C31.06,51.396 31.95,52.393 33.277,52.41ZM46.456,42.596C46.323,41.643 46.286,41.418 45.444,38.528C46.548,38.376 47.446,38.235 48.464,38.038C49.148,37.903 49.882,37.745 50.778,37.54C50.778,37.54 52.854,37.169 53.284,36.411C53.536,35.97 53.985,35.364 53.257,34.757C53.255,34.755 53.255,34.753 53.253,34.753L53.253,34.751C53.253,34.751 53.169,34.642 52.714,34.54C52.523,34.497 52.351,34.456 52.185,34.407C51.962,34.339 51.749,34.251 51.531,34.093C51.146,33.82 51.154,33.501 51.154,33.501C51.154,33.501 51.122,33.196 51.742,32.849C51.742,32.849 52.068,32.609 52.718,32.335C52.936,32.245 53.188,32.149 53.474,32.058C54.628,31.695 55.962,31.857 55.962,31.857C55.962,31.857 56.522,31.918 56.429,32.295C56.333,32.674 56.017,33.307 56.005,33.631C55.997,33.826 56.003,34.041 56.147,34.238C56.194,34.302 56.257,34.363 56.337,34.422C56.419,34.485 56.517,34.543 56.645,34.596C57.042,34.762 57.546,34.791 57.872,34.789C58.065,34.789 58.194,34.777 58.194,34.777C58.194,34.777 59.134,34.73 60.681,34.232C61.651,33.919 62.619,33.582 63.206,33.375C63.552,33.252 63.807,33.158 63.807,33.158C65.161,34.486 65.415,36.109 65.415,36.109C65.415,36.109 65.599,36.746 65.224,36.795C64.896,36.838 64.13,36.844 64.13,36.844C64.13,36.844 63.839,36.873 63.366,36.969C62.895,37.067 62.595,37.569 62.528,37.916C62.461,38.263 62.257,39.219 63.06,40.719C63.862,42.215 64.874,42.147 64.874,42.147C65.753,42.071 66.023,41.917 66.535,41.569C67.033,41.231 67.261,40.477 67.29,40.333C67.318,40.189 67.388,40.044 67.501,40.044C67.619,40.044 67.581,40.044 67.851,40.005C68.124,39.968 68.329,40.159 68.548,40.614C68.694,40.905 69.466,42.177 69.69,42.932C69.913,43.684 70.106,44.438 70.124,45.114C70.134,45.38 70.211,45.951 70.211,45.951C69.08,46.515 66.511,47.762 64.839,48.347C64.839,48.347 63.56,48.867 63.038,48.879C63.038,48.879 62.923,48.883 63.015,48.758C63.107,48.631 63.204,48.537 63.361,48.254C63.519,47.969 63.802,47.328 63.802,46.668C63.802,46.008 63.038,45.361 61.974,45.475C60.912,45.59 59.894,45.885 58.667,46.358C57.442,46.829 56.388,47.829 56.247,48.659C56.104,49.489 57.001,49.968 57.001,49.968C57.001,49.968 58.013,50.482 58.142,50.757C58.271,51.034 58.175,51.292 58.175,51.292C58.175,51.292 58.087,51.567 57.642,51.825C57.199,52.081 55.992,52.702 55.992,52.702C55.992,52.702 54.486,53.532 52.199,53.733C52.199,53.733 50.113,53.911 48.914,53.971C48.9,53.971 48.887,53.971 48.873,53.973C48.924,52.438 48.738,51.243 48.42,50.352C48.315,50.057 48.193,49.792 48.061,49.565C47.514,48.6 46.618,48.087 46.176,47.874C45.734,47.661 44.713,47.56 44.014,47.815C43.317,48.071 43.17,48.278 42.916,48.719C42.658,49.162 42.346,49.133 42.346,49.133C42.346,49.133 41.412,49.154 41.078,47.754C41.072,47.727 41.062,47.709 41.057,47.68C41.012,47.465 40.985,47.276 40.961,47.09C40.957,47.051 40.945,47.002 40.941,46.963C40.927,46.84 40.927,46.74 40.923,46.629C40.919,46.545 40.909,46.449 40.909,46.371C40.913,45.308 41.298,44.929 41.298,44.929C41.298,44.929 41.517,44.605 42.234,44.507C42.951,44.409 43.414,44.585 43.963,44.722C44.512,44.859 44.926,44.802 45.613,44.468C46.008,44.275 46.269,44.007 46.396,43.63C46.491,43.35 46.515,43.014 46.456,42.596ZM81.523,48.822L81.523,48.39C81.458,48.08 81.482,47.668 81.417,47.367C81.287,46.765 81.402,46.053 81.175,45.558C81.04,45.525 80.906,45.499 80.718,45.503C80.649,45.573 80.595,45.61 80.612,45.692C80.667,45.936 80.983,45.987 81.069,46.231C81.081,46.348 81.087,46.465 81.095,46.583C81.188,46.966 81.171,47.46 81.255,47.853L81.255,48.175C81.3,48.372 81.363,48.882 81.311,49.04C81.214,49.318 80.913,49.57 80.718,49.769C80.203,50.283 79.599,50.937 78.694,51.035C78.675,51.082 78.686,51.062 78.667,51.09C78.681,51.428 78.991,51.361 79.206,51.496C79.261,51.486 79.315,51.476 79.368,51.467C79.45,51.418 79.499,51.303 79.556,51.225C79.693,51.047 79.941,50.953 80.07,50.766L80.097,50.766C80.097,51.59 80.115,52.514 80.124,53.303L80.202,53.303C80.388,52.504 80.374,51.522 80.364,50.549C80.718,50.217 80.946,49.737 81.308,49.416L81.308,49.363L81.335,49.363C81.341,50.217 81.359,51.088 81.359,51.951C81.359,52.228 81.292,52.892 81.359,53.006L81.359,53.166L81.415,53.166C81.486,52.877 81.507,52.469 81.576,52.143L81.576,51.684C81.656,51.321 81.654,50.619 81.576,50.252C81.48,49.799 81.614,49.244 81.523,48.822ZM17.761,48.469C17.818,48.483 17.859,48.494 17.896,48.524C18.429,48.487 18.539,48.059 18.814,47.769C19.046,48.328 18.873,49.306 18.355,49.442C18.134,49.594 17.808,49.395 17.681,49.281C17.24,48.871 17.146,48.25 16.98,47.553C16.925,47.319 17.003,46.842 16.9,46.66C16.904,46.385 16.963,45.889 16.818,45.744L16.818,45.717L16.765,45.719C16.755,47.401 16.667,49.994 17.98,50.36C18.457,50.492 18.72,50.176 18.869,49.955C19.406,49.158 19.256,47.605 18.734,46.935C18.504,46.958 18.171,47.507 18.06,47.689C18.005,47.679 18.009,47.681 17.98,47.662C17.917,47.635 17.921,47.617 17.871,47.582C17.83,46.945 17.957,46.352 17.98,45.746C18.691,45.816 19.302,46.221 20.031,46.26C20.029,46.133 20.031,45.963 20.082,45.881C20.076,45.818 20.078,45.807 20.055,45.774C19.957,45.694 19.409,45.565 19.246,45.559L19.246,45.532L19.221,45.532C19.319,44.731 19.092,44.112 18.545,43.886C18.238,43.831 17.934,43.777 17.627,43.722C17.471,43.665 17.395,43.54 17.275,43.454C17.236,43.194 17.185,42.903 17.384,42.751C17.368,42.653 17.363,42.636 17.302,42.589L17.302,42.562L17.275,42.562C17.185,42.718 17.109,42.9 17.06,43.103C16.902,43.773 17.271,44.343 17.681,44.48C17.951,44.523 18.22,44.57 18.492,44.615C18.705,44.697 18.801,44.873 18.949,45.019C18.943,45.369 18.607,45.406 18.328,45.316C17.892,45.173 17.428,45.076 16.98,44.912C16.861,44.869 16.753,44.797 16.601,44.777C16.581,44.947 16.564,45.119 16.546,45.289C16.925,45.406 17.302,45.523 17.679,45.641C17.665,46.59 17.288,47.732 17.761,48.469ZM79.312,48.984C79.372,49.131 79.484,49.379 79.609,49.467C79.669,49.51 79.699,49.494 79.742,49.549C80.638,49.625 81.001,48.086 80.636,47.201C80.573,47.047 80.283,46.597 80.015,46.769L79.96,46.769C79.979,46.722 79.968,46.744 79.986,46.714C79.986,46.585 79.972,46.542 79.933,46.472C79.88,46.462 79.828,46.454 79.771,46.445C79.746,46.466 79.765,46.455 79.718,46.472C79.738,46.636 79.794,46.64 79.8,46.822C79.362,47.223 78.991,48.176 79.312,48.984ZM79.605,47.555C79.667,47.409 79.787,47.315 79.876,47.203C79.931,47.191 79.927,47.195 79.954,47.174C80.161,47.174 80.218,47.215 80.333,47.283C80.538,47.769 80.569,48.615 80.228,48.984C80.175,49.041 80.072,49.062 80.013,49.119C79.446,49.076 79.402,48.045 79.605,47.555ZM82.915,43.617C82.962,43.57 82.993,43.48 82.983,43.258C83.102,44.135 83.186,45.018 83.239,45.904C83.177,46.035 83.155,46.316 83.155,46.316C83.155,46.316 83.112,46.634 83.05,46.629C83.034,46.625 83.013,46.625 82.984,46.613C82.9,46.57 82.769,46.398 82.667,45.666C82.529,44.687 82.56,43.654 82.56,43.654C82.56,43.654 82.532,43.549 82.591,43.525C82.653,43.504 82.72,43.593 82.72,43.593C82.72,43.593 82.81,43.723 82.915,43.617ZM76.302,28.465C76.318,28.459 76.329,28.453 76.343,28.445C76.382,28.429 76.423,28.414 76.456,28.396C76.456,28.396 76.466,28.394 76.481,28.386L76.483,28.386L76.487,28.396C77.184,29.519 78.427,31.324 78.427,31.324C78.427,31.324 78.931,31.978 79.044,31.984C79.156,31.992 78.986,31.478 78.986,31.478C78.986,31.478 78.931,31.273 78.976,31.244C79.443,32.086 79.872,32.945 80.265,33.816L80.265,33.818C80.265,33.818 80.165,33.867 80.165,34.043C80.165,34.387 80.503,35.174 80.503,35.174C80.503,35.174 81.214,36.979 81.665,38.242C81.52,38.322 81.433,38.447 81.118,38.5C80.714,38.564 80.249,38.707 79.792,39.398C79.655,39.605 79.604,39.826 79.595,40.035C79.595,40.039 79.593,40.043 79.593,40.045C79.591,40.059 79.595,40.072 79.593,40.086C79.593,40.17 79.597,40.252 79.609,40.328L79.656,40.576C79.663,40.597 79.667,40.623 79.673,40.642C79.675,40.646 79.675,40.65 79.677,40.654C79.735,40.832 79.794,40.947 79.794,40.947C79.794,40.947 80.038,41.351 80.156,41.558C80.273,41.767 80.884,43.068 80.181,44.019C80.181,44.019 79.804,44.457 79.14,44.605C78.554,44.736 78.702,44.048 78.644,43.681C78.644,43.681 78.556,42.124 77.8,41.234C77.134,40.453 75.929,41.839 75.325,42.302C74.763,42.73 73.126,44.423 70.77,45.659L70.684,44.526C70.684,44.526 70.624,43.919 70.296,42.971C69.63,41.043 68.975,40.16 68.975,40.16C68.975,40.16 68.71,39.594 68.128,39.361C67.981,39.302 67.816,39.259 67.628,39.259C66.722,39.259 66.65,40.091 66.65,40.091C66.65,40.091 66.439,40.747 66.091,40.95C65.792,41.124 64.987,41.593 64.435,41.319C64.357,41.278 64.283,41.225 64.218,41.153C64.113,41.038 64.027,40.917 63.937,40.796C63.835,40.659 63.745,40.521 63.663,40.378C63.378,39.884 63.199,39.362 63.154,38.855C63.085,38.072 63.406,37.753 63.406,37.753C63.406,37.753 63.47,37.552 64.507,37.552C65.667,37.552 65.88,37.195 65.88,37.195C65.88,37.195 66.102,36.992 66.083,36.539C66.064,36.084 65.888,35.109 65.552,34.49C65.505,34.406 65.442,34.304 65.372,34.203C65.115,33.816 64.737,33.336 64.399,32.945C64.399,32.945 65.361,32.576 65.962,32.306C67.188,31.751 67.772,31.29 68.333,30.97C68.333,30.97 69.572,30.206 70.302,30.228C70.304,30.228 70.473,30.222 70.489,30.445C70.505,30.67 70.559,31.002 70.636,31.193C70.712,31.384 71.136,32.435 72.495,32.589C72.667,32.609 72.824,32.61 72.973,32.601C73.052,32.595 73.12,32.578 73.196,32.564C73.255,32.554 73.321,32.55 73.376,32.537C73.478,32.51 73.569,32.473 73.655,32.435C73.673,32.429 73.694,32.425 73.71,32.417C73.802,32.374 73.882,32.327 73.954,32.278C73.962,32.274 73.972,32.272 73.979,32.266C74.292,32.055 74.44,31.825 74.44,31.825C74.44,31.825 74.907,31.11 74.104,30.261C74.104,30.261 73.45,29.56 73.429,29.505C73.429,29.505 73.388,29.442 73.458,29.388C73.479,29.374 73.501,29.359 73.54,29.347C73.654,29.316 74.468,29.087 75.245,28.835C75.609,28.718 75.964,28.595 76.238,28.485C76.263,28.479 76.284,28.471 76.302,28.465ZM51.734,39.809C52.273,39.971 52.66,40.582 52.972,40.997C53.109,41.179 53.322,41.325 53.458,41.509C54.036,42.279 54.69,42.972 55.265,43.749C55.49,44.05 55.792,44.312 55.994,44.638C56.115,44.636 56.14,44.62 56.21,44.583C56.356,43.95 56.438,43.312 56.615,42.667C56.697,42.372 56.8,42.024 56.828,41.696C57.054,41.776 57.232,42.11 57.372,42.29C57.792,42.851 58.388,43.315 58.773,43.909C58.884,43.903 58.896,43.891 58.962,43.856C59.083,42.94 59.198,42.022 59.316,41.104L59.316,40.834C59.439,40.289 59.41,39.631 59.531,39.082C59.695,38.34 59.462,37.617 60.206,37.434C60.222,37.362 60.244,37.334 60.206,37.272C60.189,37.227 60.199,37.247 60.179,37.219C60.151,37.198 60.155,37.203 60.101,37.192C59.892,37.344 59.33,37.448 59.048,37.516C58.835,37.569 58.611,37.522 58.453,37.623C58.429,37.633 58.4,37.641 58.374,37.65C58.382,37.705 58.39,37.759 58.4,37.812C58.708,37.912 58.992,37.791 59.128,38.054C59.218,38.226 59.203,38.843 59.154,39.079C58.982,39.872 59.054,40.778 58.884,41.561C58.823,41.832 58.9,42.36 58.777,42.559L58.777,42.614C58.613,42.536 58.506,42.323 58.398,42.182C58.158,41.864 57.802,41.608 57.56,41.291C57.415,41.1 57.263,40.871 57.076,40.723C57.099,40.203 57.253,39.659 57.376,39.186C57.466,38.831 57.468,38.5 57.647,38.241C57.747,38.095 57.991,37.999 58.159,37.917C58.157,37.851 58.155,37.817 58.132,37.782C58.122,37.755 58.116,37.729 58.107,37.702C57.736,37.757 57.421,37.934 57.08,38.026C56.771,38.11 56.46,38.089 56.216,38.214C56.224,38.277 56.224,38.29 56.244,38.321C56.255,38.348 56.261,38.376 56.271,38.401C57.218,38.348 57.074,38.864 56.892,39.59C56.833,39.811 56.872,40.117 56.755,40.291L56.755,40.344L56.728,40.344C56.533,40.049 56.242,39.764 55.999,39.508C55.899,39.418 55.8,39.328 55.702,39.238C55.632,39.144 55.593,39.025 55.513,38.939C55.531,38.642 55.773,38.566 55.999,38.482C55.989,38.357 55.964,38.341 55.919,38.265C55.216,38.369 54.605,38.763 53.814,38.804L53.814,38.833L53.787,38.833C53.792,38.899 53.792,38.933 53.814,38.968L53.814,39.021C53.968,39.048 54.199,38.986 54.382,39.048C54.671,39.152 54.933,39.489 55.109,39.724C55.376,40.074 55.79,40.37 56.052,40.722C56.191,40.908 56.349,41.154 56.538,41.288C56.513,41.763 56.382,42.263 56.268,42.692C56.208,42.911 56.245,43.192 56.132,43.366C56.113,43.413 56.126,43.391 56.106,43.419C55.847,42.931 55.352,42.558 55.028,42.124C54.401,41.292 53.706,40.542 53.056,39.724C53.056,39.609 53.063,39.54 53.112,39.482C53.161,39.324 53.356,39.179 53.544,39.158C53.554,39.074 53.565,39.066 53.517,38.994C53.505,38.969 53.499,38.941 53.49,38.914C52.941,38.998 52.451,39.252 51.927,39.4C51.655,39.476 51.294,39.439 51.089,39.589C51.063,39.597 51.033,39.607 51.009,39.616C51.024,39.72 51.05,39.735 51.089,39.805C51.298,39.803 51.525,39.744 51.734,39.809ZM15.876,38.096L15.878,38.09C15.878,38.09 15.909,38.006 15.937,37.965C15.958,37.934 15.976,37.932 15.972,38.033C15.962,38.26 16.105,38.279 16.105,38.279C16.197,38.267 16.294,38.162 16.396,37.994L16.396,37.996C16.4,37.992 16.402,37.986 16.404,37.98C16.445,37.914 16.486,37.834 16.529,37.744C16.541,37.721 16.55,37.693 16.562,37.668L16.705,37.33L16.842,36.961L17.008,36.458L17.202,35.791L17.315,35.33L17.385,34.996C17.41,34.857 17.426,34.764 17.426,34.74C17.426,34.666 17.387,34.609 17.322,34.646C17.256,34.683 17.236,34.656 17.236,34.656C17.234,34.64 17.238,34.615 17.244,34.59C17.244,34.584 17.244,34.582 17.246,34.576C17.291,34.359 17.482,33.887 17.482,33.887L17.831,33.065C17.884,32.95 17.936,32.836 17.991,32.725C17.995,32.717 17.997,32.711 18.001,32.705C18.423,31.832 18.864,31.105 19.175,30.625C19.232,30.617 19.236,30.619 19.339,30.588C19.339,30.588 19.614,30.541 20.099,30.67C20.722,30.834 21.507,30.332 21.507,30.332C21.507,30.332 21.519,30.324 21.538,30.312C21.54,30.31 21.544,30.306 21.546,30.304L21.774,30.132C21.807,30.105 21.842,30.075 21.878,30.042C21.888,30.034 21.896,30.026 21.905,30.017C21.903,30.019 21.901,30.021 21.899,30.021C22.067,29.861 22.253,29.65 22.376,29.388L22.622,28.702C22.622,28.702 22.821,28.04 23.376,27.829C23.376,27.829 23.591,27.714 23.942,27.708C24.161,27.706 24.21,27.802 24.217,27.872C24.221,27.915 24.209,27.948 24.209,27.948C24.209,27.948 24.17,28.106 23.809,28.571C23.448,29.032 23.352,29.385 23.352,29.385C23.352,29.385 23.231,29.662 23.315,29.869C23.344,29.937 23.397,29.998 23.483,30.039C23.483,30.039 23.647,30.135 24.124,29.976C24.603,29.818 26.185,29.402 27.151,29.253L27.157,29.249L27.155,29.255C26.975,29.771 26.743,30.581 26.835,31.034C26.974,31.723 27.624,31.723 27.624,31.723C27.624,31.723 27.77,31.729 27.985,31.682C27.999,31.69 28.006,31.703 28.022,31.709C28.139,31.748 28.368,31.752 28.764,31.551C28.797,31.535 28.821,31.53 28.85,31.522C29.084,31.739 29.149,32.379 29.149,32.512C29.149,32.692 29.145,33.69 28.454,34.176C28.454,34.176 28.175,34.391 27.782,34.391C27.386,34.391 27.132,34.276 27.132,34.276C27.132,34.276 26.46,34.09 26.046,34.333C25.636,34.577 25.144,35.081 24.753,35.813C24.366,36.543 24.04,37.848 24.058,38.811C24.074,39.569 24.175,40.287 24.251,40.775C24.251,40.775 22.684,41.187 20.921,41.175C19.679,41.169 19.714,40.519 19.872,40.091L19.96,39.886C19.981,39.845 20.003,39.804 20.021,39.779C20.041,39.746 20.054,39.724 20.054,39.724C20.054,39.724 20.49,38.96 20.566,38.521C20.566,38.521 20.72,37.332 19.597,37.41C18.476,37.486 18.255,38.463 18.255,38.463C18.255,38.463 18.179,39.01 18.194,39.414C18.208,39.818 18.194,40.672 17.688,41.158C17.186,41.644 16.645,41.496 16.645,41.496C16.645,41.496 15.737,41.1 15.557,41.006C15.414,40.932 15.286,40.926 15.161,40.945C15.359,39.982 15.597,39.031 15.876,38.096ZM82.155,39.08C82.301,39.629 82.421,40.185 82.54,40.742C82.37,40.041 82.179,39.39 82.03,38.922L82.155,39.08ZM82.028,38.92C82.069,39.045 82.108,39.176 82.149,39.315C82.106,39.176 82.063,39.038 82.026,38.919L82.028,38.92ZM77.284,36.947C77.221,37.885 76.417,38.183 75.559,37.812C74.944,37.548 74.455,36.966 74.071,36.462C73.944,36.292 73.745,36.149 73.614,35.976C73.493,35.812 73.405,35.63 73.261,35.49L73.261,35.463L73.208,35.463C73.279,35.754 73.447,36.02 73.559,36.274C74.015,37.323 74.595,38.057 75.477,38.674C75.89,38.967 76.581,39.428 77.177,38.998C78.216,38.25 77.71,35.461 77.283,34.412C77.171,34.137 77.083,33.92 76.96,33.683C76.755,33.292 76.542,32.718 75.962,32.712C75.816,32.833 75.665,32.931 75.583,33.116C75.054,34.317 76.143,35.671 76.636,36.327C76.812,36.561 77.017,36.814 77.284,36.947ZM81.929,38.793L81.941,38.809L81.831,38.684L81.929,38.789L81.929,38.793ZM80.546,34.482C80.552,34.48 80.55,34.474 80.556,34.472C81.077,35.691 81.533,36.931 81.902,38.181C81.874,38.181 81.845,38.179 81.814,38.187C81.804,38.189 81.796,38.193 81.79,38.197C81.787,38.189 81.785,38.185 81.785,38.185C81.785,38.185 81.572,37.562 81.081,36.318C80.648,35.23 80.529,34.763 80.507,34.664C80.503,34.648 80.503,34.643 80.503,34.643C80.503,34.643 80.472,34.506 80.546,34.482ZM44.862,25.588C46.44,25.125 46.983,24.756 47.04,24.715C47.112,24.664 47.145,24.582 47.161,24.498C47.325,24.394 47.474,24.289 47.591,24.178C47.591,24.178 48.017,23.977 47.607,23.578L47.605,23.576C47.191,23.178 46.992,23.056 46.992,23.056C46.992,23.056 46.924,23.019 46.89,22.935C46.88,22.912 46.876,22.882 46.874,22.851C46.909,22.783 46.958,22.71 47.034,22.624C47.27,22.36 47.612,22.179 48.054,22.081C48.283,22.03 48.847,21.972 49.394,21.997C49.818,22.017 50.068,22.052 50.234,22.112C50.212,22.362 50.175,22.704 50.183,22.809C50.189,22.914 50.201,23.151 50.443,23.373C50.492,23.51 50.581,23.639 50.736,23.703C50.84,23.767 51.267,23.961 52.468,23.838C52.489,23.834 52.988,23.746 53.765,23.516C55.626,22.961 56.667,22.655 56.859,22.604C56.876,22.6 56.896,22.594 56.915,22.588C57.009,22.777 57.165,23.072 57.433,23.527C58.05,24.588 59.122,24.996 59.585,24.947C59.99,24.906 60.689,24.717 60.956,24.418C61.227,24.117 61.499,24.156 61.499,24.156C62.085,24.117 62.23,24.611 62.714,25.306C63.197,26.001 62.901,26.542 62.901,26.542C62.581,26.966 62.22,26.88 61.892,26.812C61.647,26.761 61.621,26.732 61.335,26.677C60.443,26.56 60.147,27.216 60.147,27.216C59.507,28.202 60.263,28.917 60.263,28.917C60.263,28.917 61.948,31.175 63.231,32.567C62.261,32.899 61.003,33.321 61.003,33.321C61.003,33.321 59.29,33.952 58.162,34.106C57.037,34.26 56.787,34.096 56.636,33.944C56.483,33.792 56.662,33.253 56.662,33.253C56.662,33.253 57.122,32.315 56.898,31.829C56.677,31.341 55.228,31.214 55.206,31.214C55.177,31.214 53.624,31.034 52.171,31.851C50.878,32.576 50.708,32.97 50.708,32.97C50.708,32.97 50.296,33.611 50.785,34.243C51.335,34.96 52.064,35.024 52.064,35.024C52.064,35.024 52.761,35.079 52.923,35.284C53.087,35.487 52.974,35.712 52.974,35.712C52.974,35.712 52.745,36.341 51.454,36.607C51.454,36.607 49.288,37.242 45.245,37.816C44.438,34.904 44.388,33.07 44.388,33.07C44.327,32.507 44.396,32.267 44.646,32.105C44.753,32.052 44.939,31.976 45.197,31.939L45.72,31.91L46.187,31.945C46.421,31.965 46.748,31.99 47.132,31.828C47.134,31.828 47.136,31.828 47.138,31.826C47.15,31.822 47.159,31.816 47.171,31.812C47.243,31.785 47.312,31.755 47.374,31.72C47.663,31.56 48.454,31.128 48.399,30.245C48.346,29.364 47.643,28.319 47.069,27.96C46.923,27.87 46.768,27.812 46.61,27.78C46.135,27.682 45.63,27.819 45.321,28.05C44.909,28.357 44.745,28.751 44.493,28.878C44.245,29.001 43.891,29.28 43.518,29.202C43.514,29.2 43.51,29.202 43.506,29.2C43.127,29.11 43.11,28.264 42.947,27.311L42.734,26.065C43.179,26.002 43.915,25.865 44.862,25.588ZM17.027,34.848C17.021,34.864 17.021,34.868 17.017,34.879C16.978,35.025 16.96,35.108 16.96,35.108C16.956,35.174 16.958,35.221 16.966,35.254C16.978,35.297 16.997,35.32 17.038,35.318C17.063,35.316 17.124,35.226 17.142,35.271C17.154,35.3 17.15,35.378 17.117,35.558C17.054,35.876 16.76,36.722 16.644,37.066C16.527,37.412 16.398,37.646 16.306,37.63C16.277,37.624 16.259,37.603 16.243,37.579C16.218,37.532 16.214,37.47 16.214,37.47C16.214,37.47 16.21,37.417 16.191,37.38C16.175,37.347 16.146,37.329 16.099,37.372C16.374,36.52 16.685,35.678 17.027,34.848ZM20.083,34.789L20.46,34.789C20.523,34.709 20.585,34.627 20.649,34.547C20.874,34.309 21.172,34.067 21.35,33.791L21.43,33.791L21.43,34.168C21.225,34.354 20.905,34.641 20.811,34.924L20.811,35.139C20.672,35.739 20.963,36.045 21.485,36.002C21.827,35.686 22.389,35.424 22.323,34.789C22.292,34.766 22.319,34.793 22.294,34.764C22.239,34.776 22.243,34.77 22.214,34.791C22.019,34.893 21.689,35.764 21.296,35.518C21.099,35.52 21.079,35.483 20.972,35.411C20.986,35.155 21.421,34.686 21.595,34.575C21.616,34.163 21.724,33.721 21.675,33.335C21.648,33.325 21.622,33.315 21.595,33.308C21.499,33.277 21.425,33.423 21.351,33.497C21.156,33.694 20.91,33.903 20.757,34.143C20.528,34.141 19.794,34.133 19.65,34.225L19.57,34.225C19.638,34.049 20.158,33.475 20.002,33.225C19.994,33.198 19.986,33.17 19.975,33.143C19.483,33.145 18.889,34.022 18.735,34.385C18.655,34.567 18.655,34.776 18.546,34.924L18.546,34.951C18.915,34.906 19.284,34.861 19.651,34.814C19.79,34.785 19.984,34.852 20.083,34.789ZM76.208,34.008L76.341,34.008C76.607,34.283 76.851,34.545 77.017,34.924C77.105,35.129 77.121,35.473 77.232,35.654C77.216,35.701 77.228,35.679 77.208,35.709C77.138,35.777 76.841,35.424 76.775,35.357C76.472,35.055 75.866,34.525 76.208,34.008ZM22.566,34.25C22.988,33.818 23.877,32.736 23.863,31.932C23.82,31.889 23.781,31.821 23.754,31.77C23.586,31.729 23.371,31.711 23.133,31.715C23.072,31.934 22.947,32.119 22.863,32.309C22.681,32.727 22.517,33.143 22.351,33.551C22.21,33.889 22.122,34.434 21.919,34.709L21.919,34.764C22.202,34.713 22.396,34.426 22.566,34.25ZM19.165,34.277L19.003,34.277C19.077,33.98 19.37,33.64 19.732,33.629L19.732,33.764C19.607,33.928 19.48,34.088 19.355,34.25C19.278,34.25 19.208,34.25 19.165,34.277ZM22.675,33.389C22.835,33.006 22.945,32.625 23.132,32.284C23.236,32.286 23.316,32.294 23.374,32.339C23.438,32.372 23.394,32.325 23.429,32.392C23.484,32.527 23.308,32.74 23.241,32.849C23.118,33.054 23.05,33.253 22.917,33.445C22.796,33.619 22.603,33.754 22.485,33.929L22.456,33.929C22.491,33.723 22.603,33.557 22.675,33.389ZM57.98,22.287C58.462,22.162 59.394,21.853 59.593,21.777C59.784,21.703 60.798,21.367 61.527,21.242C62.261,21.113 62.925,21.138 63.165,21.267C63.203,21.3 63.365,21.455 63.431,21.599C63.522,21.796 63.778,22.283 64.218,22.507C64.587,22.691 64.86,22.798 65.679,22.726C66.845,22.433 66.976,21.783 66.858,21.562C66.706,21.271 66.249,20.974 66.249,20.974C66.249,20.974 65.636,20.581 65.503,20.396C65.489,20.376 65.489,20.363 65.482,20.347C65.812,20.304 66.181,20.255 66.617,20.138C66.828,20.081 66.992,20.025 67.113,19.966L67.3,20.023C67.662,20.314 69.74,21.978 70.449,22.445C70.595,22.541 70.789,22.511 70.9,22.377L70.912,22.361C71.003,22.431 71.097,22.509 71.128,22.543C71.128,22.543 71.568,22.539 71.789,22.764C72.078,23 72.884,23.709 73.093,24.106L73.197,24.419C73.137,24.53 73.148,24.665 73.221,24.769C73.245,24.806 73.867,25.687 74.656,26.55C74.736,26.657 75.391,27.542 75.754,27.925C75.565,28.003 75.293,28.101 74.93,28.198C74.17,28.403 73.438,28.743 73.438,28.743C73.438,28.743 72.831,28.942 73.063,29.434C73.084,29.481 73.11,29.514 73.133,29.555C73.145,29.59 73.162,29.625 73.188,29.662C73.188,29.662 73.2,29.674 73.204,29.678C73.411,30.002 73.637,30.168 73.637,30.168L73.861,30.422C73.914,30.488 73.965,30.563 74.008,30.639C74.077,30.758 74.133,30.883 74.139,30.996C74.154,31.353 74.002,31.516 73.617,31.728C73.234,31.943 72.885,31.984 72.885,31.984C72.885,31.984 71.973,32.148 71.522,31.72C71.069,31.292 70.985,30.585 70.985,30.585C70.985,30.585 70.95,29.987 70.202,29.733C69.45,29.477 68.53,30.022 68.53,30.022C68.53,30.022 67.803,30.405 67.028,30.909C66.254,31.413 63.862,32.351 63.862,32.351C63.799,32.29 63.682,32.169 63.542,32.013C63.192,31.626 62.659,31.005 62.174,30.423C61.698,29.855 61.272,29.325 61.114,29.101C60.729,28.55 60.672,28.423 60.602,28.24C60.579,28.195 60.579,28.135 60.588,28.068C60.617,27.865 60.752,27.595 60.877,27.449C61.039,27.258 61.232,27.219 61.629,27.304C62.025,27.392 62.285,27.566 62.914,27.363C63.543,27.162 63.574,26.687 63.621,26.205C63.656,25.842 63.34,25.176 62.982,24.658C62.863,24.484 62.74,24.328 62.625,24.205C62.158,23.711 61.504,23.633 61.049,23.662C60.598,23.691 60.336,24.019 60.072,24.166C59.809,24.311 59.32,24.455 59.096,24.359C58.986,24.31 58.844,24.261 58.684,24.144C58.527,24.023 58.348,23.833 58.162,23.499C57.914,23.063 57.703,22.665 57.566,22.401C57.691,22.365 57.827,22.326 57.98,22.287ZM76.921,28.146C76.948,28.125 76.968,28.101 76.989,28.078C77.575,28.912 78.124,29.773 78.635,30.656C78.573,30.666 78.525,30.744 78.652,31.076C78.73,31.285 78.744,31.361 78.728,31.373C78.703,31.391 78.6,31.234 78.6,31.234C77.967,30.431 76.664,28.306 76.664,28.306L76.659,28.304C76.747,28.262 76.843,28.207 76.921,28.146ZM49.251,28.424C49.388,28.469 49.522,28.514 49.659,28.559C49.765,28.559 49.882,28.557 49.952,28.532C49.946,28.085 49.704,27.909 49.548,27.614C49.472,27.464 49.429,27.259 49.306,27.155C49.353,26.991 49.802,26.946 49.98,26.884C50.419,26.741 50.917,26.597 51.359,26.452C51.566,26.386 51.81,26.399 51.978,26.292C52.078,26.302 52.128,26.312 52.167,26.37C52.265,26.516 52.345,27.509 52.274,27.802C52.001,28.937 51.663,29.823 50.952,30.501L50.952,30.528C51.216,30.485 51.339,30.229 51.518,30.096C52.235,29.553 52.718,28.75 52.974,27.746C53.124,27.158 52.878,26.578 53.112,26.074L53.085,26.074C53.034,25.947 52.347,25.697 52.138,25.697C52.027,25.816 51.867,25.98 51.706,26.047C51.462,26.152 51.134,26.123 50.925,26.262C50.73,26.246 50.579,25.873 50.71,25.723C50.702,25.662 50.704,25.647 50.683,25.616C50.519,25.485 50.103,25.499 49.818,25.509C49.726,25.593 49.646,25.611 49.603,25.753L49.578,25.753C49.562,25.804 49.591,25.786 49.603,25.806C49.622,25.818 49.714,25.802 49.765,25.833C50.072,25.864 50.064,26.218 50.224,26.399C50.206,26.446 50.218,26.426 50.197,26.454C50.093,26.538 49.31,26.763 49.145,26.806C49.018,26.837 48.864,26.759 48.768,26.751C48.539,26.731 48.336,26.86 48.2,26.939C48.274,27.046 48.497,27.021 48.579,27.128C48.864,27.51 48.993,28 49.251,28.424ZM19.368,30.33L19.37,30.33L19.253,30.502L19.368,30.33ZM19.368,30.33L19.362,30.338C19.362,30.336 19.364,30.334 19.364,30.334L19.368,30.33ZM19.861,29.938C19.916,29.899 20.002,29.842 20.052,29.825C20.134,29.8 20.204,29.747 20.247,29.675C20.255,29.661 20.985,28.441 21.304,27.976C21.408,27.912 21.513,27.849 21.572,27.816C21.599,27.826 21.629,27.834 21.66,27.837C21.754,27.849 21.851,27.819 21.926,27.757C21.963,27.724 22.315,27.405 23.129,26.306C23.192,26.232 23.215,26.136 23.203,26.044C23.195,25.981 23.172,25.923 23.133,25.874C23.153,25.788 23.186,25.671 23.213,25.61C23.219,25.606 23.225,25.598 23.231,25.592C23.243,25.578 24.399,24.219 25.323,23.436C25.325,23.436 25.44,23.354 25.62,23.332C25.653,23.328 25.683,23.318 25.712,23.307C25.755,23.289 26.782,22.856 28.032,21.76C28.083,21.715 28.124,21.643 28.141,21.576C28.141,21.576 28.182,21.422 28.405,21.123C28.587,20.883 28.993,20.613 29.384,20.453C29.257,20.568 29.091,20.715 28.884,20.937C28.675,21.162 28.605,21.298 28.622,21.369C28.638,21.437 28.741,21.439 28.878,21.392C28.946,21.369 29.032,21.335 29.138,21.29C29.142,21.288 29.146,21.288 29.15,21.286L29.15,21.285C29.416,21.172 29.802,20.986 30.351,20.705L30.372,20.738C30.47,20.884 30.667,20.931 30.821,20.843C30.823,20.843 31.061,20.714 31.428,20.57C31.217,21.021 30.856,21.728 30.444,22.24C30.444,22.24 30.19,22.617 29.991,22.523C29.796,22.433 29.563,22.425 29.372,22.464C29.179,22.507 28.583,22.704 28.042,23.429C27.505,24.154 27.44,24.699 27.731,24.861C28.02,25.023 28.444,24.81 28.698,24.584C28.887,24.416 29.036,24.316 29.132,24.279C29.165,24.345 29.212,24.396 29.275,24.429C29.273,24.474 29.269,24.519 29.261,24.542C29.243,24.606 29.157,25.474 28.154,27.212C27.902,27.648 27.578,28.294 27.425,28.607L27.423,28.609L27.419,28.605C25.792,28.908 24.577,29.285 24.163,29.441C23.747,29.599 23.741,29.498 23.741,29.498C23.682,29.43 23.721,29.301 23.788,29.174C23.827,29.094 23.876,29.018 23.923,28.953C23.986,28.865 24.038,28.801 24.038,28.801C24.038,28.801 24.483,28.192 24.659,27.633C24.837,27.072 24.052,27.151 24.052,27.151C23.534,27.233 23.163,27.477 22.736,27.993C22.406,28.393 22.203,28.94 22.127,29.229C22.078,29.413 21.996,29.581 21.996,29.581C21.996,29.581 21.933,29.694 21.689,29.802C21.404,29.925 20.851,30.073 20.851,30.073C20.851,30.073 20.482,30.104 20.216,29.97C20.126,29.925 19.952,29.939 19.812,29.962C19.827,29.953 19.847,29.949 19.861,29.938ZM54.618,28.043C54.747,28.107 54.747,28.272 54.809,28.395C54.934,28.647 55.106,28.954 55.186,29.233L55.186,29.448C55.248,29.62 55.456,29.641 55.591,29.745C55.697,29.731 55.737,29.704 55.806,29.665C55.761,29.151 55.448,28.726 55.268,28.315C55.212,28.186 55.126,28.006 55.106,27.883C55.091,27.809 55.149,27.768 55.106,27.695C55.071,27.609 55.056,27.636 55.001,27.586C54.96,27.559 54.98,27.574 55.001,27.533C55.048,27.433 55.146,27.338 55.189,27.234C55.279,27.021 55.275,26.841 55.46,26.722C55.433,26.443 55.023,26.411 54.706,26.427C54.667,26.454 54.599,26.47 54.542,26.478C54.574,26.548 54.597,26.564 54.677,26.585C54.755,27.378 54.199,28.103 53.839,28.581C53.697,28.772 53.46,28.894 53.326,29.097L53.3,29.097L53.3,29.122C53.655,29.064 54.439,28.32 54.618,28.043ZM67.491,27.021C67.803,27.441 68.153,27.875 68.731,28.019C69.382,28.181 69.7,27.415 69.946,27.126C70.198,26.831 70.753,26.759 70.944,26.37C71.013,26.229 70.966,25.952 70.917,25.831C70.794,25.542 70.19,24.726 69.946,24.565C69.962,24.401 70.038,24.395 70.106,24.295C70.274,24.377 70.335,24.615 70.458,24.752C70.612,24.928 70.829,25.022 70.997,25.184C71.255,25.186 71.409,25.12 71.536,24.995L71.563,24.995C71.499,24.815 71.261,24.69 71.132,24.563C70.849,24.28 70.634,23.924 70.349,23.647L70.349,23.62C70.21,23.669 69.737,24.089 69.649,24.214C69.479,24.148 69.382,23.964 69.245,23.864C68.784,23.516 68.35,23.067 67.548,23.081C67.446,23.159 67.296,23.161 67.167,23.214C66.808,23.372 66.429,23.685 66.278,24.052C66.108,24.462 66.282,25.07 66.413,25.374C66.679,25.992 67.114,26.512 67.491,27.021ZM66.681,23.648L66.788,23.648C66.923,23.851 67.155,23.992 67.302,24.187C67.704,24.722 68.198,25.189 68.597,25.724C68.841,26.054 69.115,26.365 69.351,26.695C69.472,26.865 69.566,27.08 69.73,27.209C69.703,27.332 69.65,27.389 69.597,27.48C69.12,27.591 68.882,27.279 68.626,27.019C67.987,26.382 67.556,25.591 67.06,24.806C66.89,24.537 66.456,24.035 66.681,23.648ZM25.536,24.779L25.614,24.779C25.507,25.107 25.077,25.556 24.887,25.859C24.78,26.027 24.715,26.248 24.563,26.371C24.588,26.4 24.561,26.371 24.59,26.398C24.651,26.433 25.145,26.302 25.238,26.236C25.295,26.246 25.289,26.244 25.32,26.263C25.349,26.31 24.992,26.939 24.914,27.019L24.914,27.046C25.049,27.03 25.256,27.009 25.346,26.937C25.608,26.734 25.668,26.298 25.858,26.019C25.85,25.974 25.84,25.929 25.831,25.886C25.681,25.859 25.366,25.9 25.239,25.993L25.212,25.993C25.275,25.669 25.804,25.075 25.993,24.805C26.304,24.364 26.593,23.94 26.909,23.508C27.077,23.283 27.309,23.084 27.477,22.862C27.665,22.612 27.866,22.282 28.123,22.108L28.123,22.055L28.016,22.055C27.889,22.147 27.555,22.203 27.397,22.295C27.418,22.389 27.411,22.365 27.477,22.404C27.383,22.666 27.069,22.863 26.909,23.08C26.657,23.42 26.376,23.74 26.128,24.078C26.044,24.189 25.989,24.365 25.886,24.455C25.724,24.596 25.263,24.582 25.077,24.725L25.023,24.725C25.062,24.498 25.642,23.776 25.806,23.62L25.806,23.593C25.527,23.632 25.312,23.779 25.13,23.915C25.161,23.978 25.155,23.966 25.212,23.997C25.112,24.159 24.966,24.28 24.86,24.429C24.725,24.617 24.653,24.839 24.51,25.023C24.52,25.05 24.53,25.076 24.535,25.103C24.71,25.088 25.427,24.859 25.536,24.779ZM67.357,23.27C67.816,23.274 68.035,23.583 68.302,23.784C68.96,24.278 69.515,24.891 70.001,25.565C70.22,25.862 70.515,26.034 70.513,26.561C70.429,26.641 70.406,26.713 70.269,26.75C70.244,26.771 70.263,26.76 70.216,26.777C69.835,26.142 69.284,25.609 68.841,25.021C68.696,24.83 68.472,24.673 68.329,24.482C68.081,24.156 67.788,23.894 67.518,23.593C67.44,23.503 67.403,23.417 67.304,23.349C67.327,23.291 67.325,23.311 67.357,23.27Z" style="fill:#cecece;"/>
    </g>
    <g>
        <path d="M57.361,20.57C57.283,20.568 57.205,20.569 57.127,20.575C55.16,20.735 53.785,21.563 52.748,23.06C52.408,23.55 52.35,23.837 52.17,24.245C50.791,23.368 49.062,22.517 46.608,22.434C42.903,22.31 39.444,24.082 37.211,27.017C35.048,29.862 33.886,33.543 33.316,37.9L33.314,37.912C33.313,37.917 33.312,37.921 33.311,37.927L33.308,37.945C33.301,37.996 33.297,38.046 33.293,38.097L33.292,38.108C33.291,38.116 33.291,38.118 33.29,38.126L33.289,38.142C32.619,45.741 32.755,48.734 33.05,50.632C32.95,50.789 32.965,50.745 32.805,51.02L32.806,51.02C30.684,54.664 30.67,58.989 30.62,62.67C30.594,64.548 30.646,66.286 30.705,67.623C30.761,69.247 30.582,71.61 32.334,73.626C32.943,74.327 33.639,74.892 34.362,75.369C35.778,76.304 37.693,77.199 40.013,77.181L40.015,77.181C41.111,77.172 42.238,76.879 43.273,76.097L43.274,76.097C44.248,75.361 44.788,74.432 45.086,73.672C45.313,73.094 45.408,72.57 45.482,72.077C47.045,72.446 48.8,72.722 50.986,72.693C54.718,72.642 58.491,71.259 61.564,68.791C64.676,66.292 67.137,62.407 67.137,57.702L67.137,57.664C67.137,57.643 67.137,57.622 67.136,57.601L67.135,57.563L67.134,57.549C67.032,54.649 66.897,52.689 66.589,51.048C66.27,49.342 65.648,47.715 64.384,46.479C63.779,45.888 63.246,45.549 62.771,45.254C62.788,45.201 62.809,45.18 62.825,45.126C63.333,43.321 63.593,41.353 63.799,39.382C64.006,37.404 64.139,35.417 64.258,33.815C64.316,33.036 64.386,32.295 64.445,31.742C64.475,31.465 64.503,31.234 64.523,31.075C64.544,30.916 64.629,30.587 64.523,31.004C65.156,28.498 64.591,26.06 63.438,24.199C62.4,22.524 60.485,20.968 57.966,20.675C57.773,20.613 57.572,20.577 57.368,20.571C57.366,20.571 57.365,20.57 57.362,20.57L57.361,20.57Z" style="fill:#f8a839;fill-rule:nonzero;"/>
        <path d="M53.843,33.213C53.857,33.209 53.887,33.195 53.944,33.162C54.191,33.02 54.325,32.791 54.416,32.343C54.507,31.895 54.507,31.286 54.489,30.673C54.472,30.058 54.429,29.452 54.543,28.862C54.599,28.567 54.698,28.254 54.944,27.975C55.19,27.696 55.599,27.519 55.979,27.51C56.915,27.488 57.839,27.631 58.413,28.364C58.986,29.098 58.979,30.102 58.66,31.367C58.555,31.781 58.454,32.962 58.377,34.357C58.3,35.753 58.224,37.412 58.086,39.019C57.948,40.625 57.753,42.172 57.404,43.399C57.23,44.012 57.022,44.549 56.711,44.997C56.4,45.445 55.917,45.839 55.312,45.882C54.504,45.94 53.754,45.64 53.347,45.097C52.939,44.554 52.837,43.925 52.783,43.294C52.673,42.032 52.782,40.616 52.506,39.655C52.155,38.431 51.775,36.725 51.118,35.386C50.789,34.716 50.397,34.15 49.952,33.776C49.508,33.403 49.035,33.2 48.379,33.206C46.829,33.219 46.119,33.553 45.623,34.08C45.129,34.607 44.81,35.476 44.447,36.647C43.717,39.005 43.088,41.128 43.728,43.289C44.061,44.413 44.38,44.944 45.178,45.424C45.976,45.904 47.369,46.29 49.699,46.686C52.135,47.1 54.846,47.939 57.01,49.524C59.175,51.109 60.774,53.518 60.774,56.791C60.774,60.024 59.454,62.452 57.463,63.992C55.472,65.531 52.866,66.215 50.237,66.251C45.954,66.309 43.122,64.85 41.542,63.856C41.346,64.774 41.301,65.98 41.332,67.214C41.352,68.022 41.366,68.779 41.187,69.468C41.097,69.812 40.953,70.159 40.666,70.444C40.379,70.73 39.945,70.896 39.525,70.901C38.28,70.911 37.373,70.277 36.979,69.523C36.585,68.769 36.577,67.989 36.577,67.495C36.577,67.09 36.527,63.859 36.486,60.716C36.465,59.144 36.447,57.582 36.44,56.375C36.435,55.772 36.434,55.258 36.436,54.872C36.438,54.487 36.422,54.345 36.462,54.068C36.567,53.335 37.013,52.926 37.58,52.488C38.147,52.05 38.894,51.68 39.758,51.68C40.359,51.68 40.859,52.041 41.168,52.442C41.477,52.843 41.674,53.31 41.836,53.806C42.161,54.798 42.322,55.921 42.43,56.714C42.494,57.181 43.095,58.489 44.223,59.53C45.351,60.571 46.963,61.428 49.118,61.428C51.415,61.428 53.315,61.107 54.493,60.444C55.672,59.781 56.222,58.918 56.093,57.259C55.963,55.594 55.139,54.176 53.685,53.042C52.232,51.909 50.139,51.091 47.57,50.778C44.79,50.439 42.432,49.592 40.877,47.814C39.322,46.035 38.689,43.417 39.108,39.859L39.109,39.854L39.109,39.85C39.602,36.066 40.575,33.272 42.094,31.388C43.614,29.505 45.725,28.608 48.119,28.689C50.631,28.773 51.987,30.44 52.787,31.707C53.188,32.34 53.51,32.893 53.714,33.106C53.79,33.184 53.833,33.208 53.843,33.213L53.841,33.214L53.842,33.214C53.846,33.215 53.847,33.215 53.843,33.213Z" style="fill:#fff;"/>
    </g>
</svg>
